M48
;DRILL file {KiCad 4.0.7} date Sunday, December 31, 2017 'PMt' 04:53:10 PM
;FORMAT={-:-/ absolute / inch / decimal}
FMAT,2
INCH,TZ
T1C0.016
T2C0.030
T3C0.039
%
G90
G05
M72
T1
X3.1Y-4.4
X3.1Y-4.65
X3.1626Y-4.4641
X3.1626Y-4.6317
X3.5Y-5.15
X3.6Y-4.65
X3.6007Y-4.6949
X3.6279Y-4.8349
X3.8228Y-4.2634
X4.1Y-4.7
X4.102Y-4.4095
X4.1052Y-4.8056
X4.1638Y-4.765
X4.1756Y-4.8572
X4.1934Y-4.959
X4.1962Y-4.5004
X4.256Y-4.3648
X4.2736Y-4.4688
X4.4208Y-4.6414
X4.4472Y-4.7206
X4.4472Y-4.7206
X4.5678Y-4.6198
X4.6346Y-4.61
X4.6767Y-4.8478
X4.8Y-4.75
X4.85Y-4.45
X4.9Y-4.6
X5.05Y-4.05
X5.1438Y-4.2796
X5.1558Y-4.667
X5.3012Y-4.8276
X5.3658Y-4.762
X5.3678Y-4.4762
X5.3768Y-4.2734
X5.5584Y-4.561
X5.5766Y-4.6306
X5.5796Y-4.4884
X5.6462Y-4.6608
X5.7158Y-4.3188
X5.7944Y-4.6184
X5.8182Y-4.7004
X5.8246Y-4.4974
X5.8246Y-4.567
X5.8368Y-4.6458
X5.8398Y-4.4096
X5.9848Y-4.934
X6.2848Y-4.7032
X6.2908Y-4.8848
X6.3Y-4.45
X6.5Y-4.45
T2
X2.9528Y-4.3244
X2.9528Y-4.7244
X7.0866Y-4.3244
X7.0866Y-4.7244
T3
X4.4787Y-4.1535
X4.5787Y-4.1535
X4.6787Y-4.1535
X4.7787Y-4.1535
X4.8787Y-4.1535
X4.9787Y-4.1535
X5.0787Y-4.1535
X5.1787Y-4.1535
X5.2787Y-4.1535
X5.3787Y-4.1535
T0
M30
