G04 #@! TF.FileFunction,Copper,L2,Bot,Signal*
%FSLAX46Y46*%
G04 Gerber Fmt 4.6, Leading zero omitted, Abs format (unit mm)*
G04 Created by KiCad (PCBNEW 4.0.7) date Sunday, December 31, 2017 'PMt' 04:52:57 PM*
%MOMM*%
%LPD*%
G01*
G04 APERTURE LIST*
%ADD10C,0.100000*%
%ADD11R,1.700000X1.700000*%
%ADD12O,1.700000X1.700000*%
%ADD13C,1.524000*%
%ADD14C,0.600000*%
%ADD15C,0.250000*%
%ADD16C,0.254000*%
G04 APERTURE END LIST*
D10*
D11*
X113760000Y-105500000D03*
D12*
X116300000Y-105500000D03*
X118840000Y-105500000D03*
X121380000Y-105500000D03*
X123920000Y-105500000D03*
X126460000Y-105500000D03*
X129000000Y-105500000D03*
X131540000Y-105500000D03*
X134080000Y-105500000D03*
X136620000Y-105500000D03*
D13*
X75000000Y-120000000D03*
X75000000Y-109840000D03*
X180000000Y-120000000D03*
X180000000Y-109840000D03*
D14*
X88900000Y-130810000D03*
X104272080Y-122062240D03*
X92148660Y-122806460D03*
X118788180Y-123134120D03*
X91457780Y-119250460D03*
X78740000Y-111760000D03*
X78740000Y-118110000D03*
X104140000Y-119380000D03*
X141183360Y-115849400D03*
X130957320Y-118541800D03*
X116022120Y-117342920D03*
X108102400Y-110865920D03*
X159786320Y-124073920D03*
X159633920Y-119461280D03*
X80330040Y-117645180D03*
X80330040Y-113388140D03*
X106512360Y-125958600D03*
X136570720Y-108544360D03*
X136342120Y-113695480D03*
X136291320Y-120954800D03*
X134650480Y-122621040D03*
X128270000Y-102870000D03*
X91440000Y-118110000D03*
X123190000Y-113030000D03*
X124460000Y-116840000D03*
X147944840Y-116001800D03*
X130652520Y-108701840D03*
X141721840Y-114005360D03*
X147944840Y-114233960D03*
X152013920Y-125323600D03*
X147782280Y-119390160D03*
X165100000Y-113030000D03*
X160020000Y-113030000D03*
X97099120Y-108290360D03*
X117718840Y-117094000D03*
X112288320Y-117891560D03*
X108549440Y-113507520D03*
X147177760Y-117307360D03*
X141645640Y-117617240D03*
X148330920Y-112003840D03*
X145181320Y-109697520D03*
X148254720Y-118003320D03*
X143413480Y-118384320D03*
X105760520Y-121031000D03*
X106060240Y-123372880D03*
X121920000Y-120650000D03*
X112958719Y-119903837D03*
X112958719Y-119903837D03*
X104190800Y-112001300D03*
X106583480Y-114310160D03*
D15*
X88900000Y-130810000D02*
X89565480Y-130144520D01*
X89565480Y-130144520D02*
X91457780Y-130144520D01*
X103530400Y-129156460D02*
X104272080Y-128414780D01*
X104272080Y-128414780D02*
X104272080Y-122062240D01*
X92232480Y-129156460D02*
X103530400Y-129156460D01*
X92148660Y-129072640D02*
X92232480Y-129156460D01*
X92148660Y-122806460D02*
X92148660Y-129072640D01*
X108224320Y-128653540D02*
X113268760Y-128653540D01*
X113268760Y-128653540D02*
X118788180Y-123134120D01*
X92082620Y-130769360D02*
X106108500Y-130769360D01*
X106108500Y-130769360D02*
X108224320Y-128653540D01*
X91457780Y-130144520D02*
X92082620Y-130769360D01*
X91457780Y-119250460D02*
X91457780Y-130144520D01*
X78740000Y-118110000D02*
X78740000Y-111760000D01*
X109220000Y-114300000D02*
X109220000Y-111983520D01*
X109220000Y-111983520D02*
X108102400Y-110865920D01*
X107950000Y-114300000D02*
X109220000Y-114300000D01*
X106680000Y-115570000D02*
X107950000Y-114300000D01*
X104140000Y-115570000D02*
X106680000Y-115570000D01*
X104140000Y-119380000D02*
X104140000Y-115570000D01*
X133263640Y-118308120D02*
X135722360Y-115849400D01*
X135722360Y-115849400D02*
X141183360Y-115849400D01*
X131615264Y-118308120D02*
X133263640Y-118308120D01*
X130957320Y-118541800D02*
X131381584Y-118541800D01*
X131381584Y-118541800D02*
X131615264Y-118308120D01*
X112090200Y-116098320D02*
X113334800Y-117342920D01*
X113334800Y-117342920D02*
X116022120Y-117342920D01*
X112090200Y-114853720D02*
X112090200Y-116098320D01*
X108102400Y-110865920D02*
X112090200Y-114853720D01*
X159633920Y-119461280D02*
X159633920Y-123921520D01*
X159633920Y-123921520D02*
X159786320Y-124073920D01*
X80330040Y-113388140D02*
X80330040Y-117645180D01*
X136342120Y-113695480D02*
X136342120Y-108772960D01*
X136342120Y-108772960D02*
X136570720Y-108544360D01*
X134650480Y-122621040D02*
X134650480Y-122595640D01*
X134650480Y-122595640D02*
X136291320Y-120954800D01*
X91440000Y-106680000D02*
X95250000Y-102870000D01*
X95250000Y-102870000D02*
X128270000Y-102870000D01*
X91440000Y-109220000D02*
X91440000Y-106680000D01*
X91440000Y-118110000D02*
X91440000Y-109220000D01*
X124460000Y-116840000D02*
X124460000Y-114300000D01*
X124460000Y-114300000D02*
X123190000Y-113030000D01*
X146872960Y-115006120D02*
X146949160Y-115006120D01*
X146949160Y-115006120D02*
X147944840Y-116001800D01*
X136037320Y-115006120D02*
X146872960Y-115006120D01*
X135265160Y-114233960D02*
X136037320Y-115006120D01*
X135265160Y-113314480D02*
X135265160Y-114233960D01*
X130652520Y-108701840D02*
X135265160Y-113314480D01*
X147944840Y-114233960D02*
X141950440Y-114233960D01*
X141950440Y-114233960D02*
X141721840Y-114005360D01*
X147782280Y-125430280D02*
X147888960Y-125323600D01*
X147888960Y-125323600D02*
X152013920Y-125323600D01*
X147782280Y-119390160D02*
X147782280Y-125430280D01*
X160020000Y-113030000D02*
X165100000Y-113030000D01*
X106634001Y-113207521D02*
X101716840Y-108290360D01*
X101716840Y-108290360D02*
X97099120Y-108290360D01*
X108549440Y-113507520D02*
X108249441Y-113207521D01*
X108249441Y-113207521D02*
X106634001Y-113207521D01*
X112288320Y-117891560D02*
X112588319Y-118191559D01*
X112588319Y-118191559D02*
X116621281Y-118191559D01*
X116621281Y-118191559D02*
X117718840Y-117094000D01*
X108397040Y-113355120D02*
X108549440Y-113507520D01*
X141645640Y-117617240D02*
X141955520Y-117307360D01*
X141955520Y-117307360D02*
X147177760Y-117307360D01*
X145181320Y-109697520D02*
X147487640Y-112003840D01*
X147487640Y-112003840D02*
X148330920Y-112003840D01*
X143413480Y-118384320D02*
X143794480Y-118003320D01*
X143794480Y-118003320D02*
X148254720Y-118003320D01*
X106060240Y-123372880D02*
X106060240Y-121330720D01*
X106060240Y-121330720D02*
X105760520Y-121031000D01*
X112958719Y-120578719D02*
X113030000Y-120650000D01*
X113030000Y-120650000D02*
X121920000Y-120650000D01*
X112958719Y-119903837D02*
X112958719Y-120578719D01*
X106583480Y-114310160D02*
X104274620Y-112001300D01*
X104274620Y-112001300D02*
X104190800Y-112001300D01*
D16*
G36*
X184023000Y-139315000D02*
X71247000Y-139315000D01*
X71247000Y-135472325D01*
X72614587Y-135472325D01*
X72976916Y-136349229D01*
X73647242Y-137020726D01*
X74523513Y-137384585D01*
X75472325Y-137385413D01*
X76349229Y-137023084D01*
X77020726Y-136352758D01*
X77384585Y-135476487D01*
X77384588Y-135472325D01*
X177614587Y-135472325D01*
X177976916Y-136349229D01*
X178647242Y-137020726D01*
X179523513Y-137384585D01*
X180472325Y-137385413D01*
X181349229Y-137023084D01*
X182020726Y-136352758D01*
X182384585Y-135476487D01*
X182385413Y-134527675D01*
X182023084Y-133650771D01*
X181352758Y-132979274D01*
X180476487Y-132615415D01*
X179527675Y-132614587D01*
X178650771Y-132976916D01*
X177979274Y-133647242D01*
X177615415Y-134523513D01*
X177614587Y-135472325D01*
X77384588Y-135472325D01*
X77385413Y-134527675D01*
X77023084Y-133650771D01*
X76352758Y-132979274D01*
X75476487Y-132615415D01*
X74527675Y-132614587D01*
X73650771Y-132976916D01*
X72979274Y-133647242D01*
X72615415Y-134523513D01*
X72614587Y-135472325D01*
X71247000Y-135472325D01*
X71247000Y-130995167D01*
X87964838Y-130995167D01*
X88106883Y-131338943D01*
X88369673Y-131602192D01*
X88713201Y-131744838D01*
X89085167Y-131745162D01*
X89428943Y-131603117D01*
X89692192Y-131340327D01*
X89834838Y-130996799D01*
X89834879Y-130949923D01*
X89880282Y-130904520D01*
X91142978Y-130904520D01*
X91545219Y-131306761D01*
X91791780Y-131471508D01*
X92082620Y-131529360D01*
X106108500Y-131529360D01*
X106399339Y-131471508D01*
X106645901Y-131306761D01*
X108539122Y-129413540D01*
X113268760Y-129413540D01*
X113559599Y-129355688D01*
X113806161Y-129190941D01*
X118927860Y-124069242D01*
X118973347Y-124069282D01*
X119317123Y-123927237D01*
X119580372Y-123664447D01*
X119723018Y-123320919D01*
X119723342Y-122948953D01*
X119664361Y-122806207D01*
X133715318Y-122806207D01*
X133857363Y-123149983D01*
X134120153Y-123413232D01*
X134463681Y-123555878D01*
X134835647Y-123556202D01*
X135179423Y-123414157D01*
X135442672Y-123151367D01*
X135585318Y-122807839D01*
X135585381Y-122735541D01*
X136431000Y-121889922D01*
X136476487Y-121889962D01*
X136820263Y-121747917D01*
X137083512Y-121485127D01*
X137226158Y-121141599D01*
X137226482Y-120769633D01*
X137084437Y-120425857D01*
X136821647Y-120162608D01*
X136478119Y-120019962D01*
X136106153Y-120019638D01*
X135762377Y-120161683D01*
X135499128Y-120424473D01*
X135356482Y-120768001D01*
X135356441Y-120814877D01*
X134485422Y-121685896D01*
X134465313Y-121685878D01*
X134121537Y-121827923D01*
X133858288Y-122090713D01*
X133715642Y-122434241D01*
X133715318Y-122806207D01*
X119664361Y-122806207D01*
X119581297Y-122605177D01*
X119318507Y-122341928D01*
X118974979Y-122199282D01*
X118603013Y-122198958D01*
X118259237Y-122341003D01*
X117995988Y-122603793D01*
X117853342Y-122947321D01*
X117853301Y-122994197D01*
X112953958Y-127893540D01*
X108224320Y-127893540D01*
X107933480Y-127951392D01*
X107686919Y-128116139D01*
X105793698Y-130009360D01*
X92397422Y-130009360D01*
X92304522Y-129916460D01*
X103530400Y-129916460D01*
X103821239Y-129858608D01*
X104067801Y-129693861D01*
X104809481Y-128952181D01*
X104974228Y-128705619D01*
X105032080Y-128414780D01*
X105032080Y-126143767D01*
X105577198Y-126143767D01*
X105719243Y-126487543D01*
X105982033Y-126750792D01*
X106325561Y-126893438D01*
X106697527Y-126893762D01*
X107041303Y-126751717D01*
X107304552Y-126488927D01*
X107447198Y-126145399D01*
X107447522Y-125773433D01*
X107305477Y-125429657D01*
X107042687Y-125166408D01*
X106699159Y-125023762D01*
X106327193Y-125023438D01*
X105983417Y-125165483D01*
X105720168Y-125428273D01*
X105577522Y-125771801D01*
X105577198Y-126143767D01*
X105032080Y-126143767D01*
X105032080Y-122624703D01*
X105064272Y-122592567D01*
X105206918Y-122249039D01*
X105207242Y-121877073D01*
X105153047Y-121745912D01*
X105230193Y-121823192D01*
X105300240Y-121852278D01*
X105300240Y-122810417D01*
X105268048Y-122842553D01*
X105125402Y-123186081D01*
X105125078Y-123558047D01*
X105267123Y-123901823D01*
X105529913Y-124165072D01*
X105873441Y-124307718D01*
X106245407Y-124308042D01*
X106589183Y-124165997D01*
X106852432Y-123903207D01*
X106995078Y-123559679D01*
X106995402Y-123187713D01*
X106853357Y-122843937D01*
X106820240Y-122810762D01*
X106820240Y-121330720D01*
X106762388Y-121039881D01*
X106695600Y-120939925D01*
X106695682Y-120845833D01*
X106553637Y-120502057D01*
X106290847Y-120238808D01*
X105947319Y-120096162D01*
X105575353Y-120095838D01*
X105231577Y-120237883D01*
X104968328Y-120500673D01*
X104825682Y-120844201D01*
X104825358Y-121216167D01*
X104879553Y-121347328D01*
X104802407Y-121270048D01*
X104458879Y-121127402D01*
X104086913Y-121127078D01*
X103743137Y-121269123D01*
X103479888Y-121531913D01*
X103337242Y-121875441D01*
X103336918Y-122247407D01*
X103478963Y-122591183D01*
X103512080Y-122624358D01*
X103512080Y-128099978D01*
X103215598Y-128396460D01*
X92908660Y-128396460D01*
X92908660Y-123368923D01*
X92940852Y-123336787D01*
X93083498Y-122993259D01*
X93083822Y-122621293D01*
X92941777Y-122277517D01*
X92678987Y-122014268D01*
X92335459Y-121871622D01*
X92217780Y-121871519D01*
X92217780Y-120089004D01*
X112023557Y-120089004D01*
X112165602Y-120432780D01*
X112198719Y-120465955D01*
X112198719Y-120578719D01*
X112256571Y-120869558D01*
X112421318Y-121116120D01*
X112492599Y-121187401D01*
X112739161Y-121352148D01*
X113030000Y-121410000D01*
X121357537Y-121410000D01*
X121389673Y-121442192D01*
X121733201Y-121584838D01*
X122105167Y-121585162D01*
X122448943Y-121443117D01*
X122712192Y-121180327D01*
X122854838Y-120836799D01*
X122855162Y-120464833D01*
X122713117Y-120121057D01*
X122450327Y-119857808D01*
X122106799Y-119715162D01*
X121734833Y-119714838D01*
X121391057Y-119856883D01*
X121357882Y-119890000D01*
X113893732Y-119890000D01*
X113893881Y-119718670D01*
X113751836Y-119374894D01*
X113489046Y-119111645D01*
X113145518Y-118968999D01*
X112773552Y-118968675D01*
X112429776Y-119110720D01*
X112166527Y-119373510D01*
X112023881Y-119717038D01*
X112023557Y-120089004D01*
X92217780Y-120089004D01*
X92217780Y-119812923D01*
X92249972Y-119780787D01*
X92392618Y-119437259D01*
X92392942Y-119065293D01*
X92250897Y-118721517D01*
X92200966Y-118671499D01*
X92232192Y-118640327D01*
X92374838Y-118296799D01*
X92375029Y-118076727D01*
X111353158Y-118076727D01*
X111495203Y-118420503D01*
X111757993Y-118683752D01*
X112101521Y-118826398D01*
X112196869Y-118826481D01*
X112297480Y-118893707D01*
X112588319Y-118951559D01*
X116621281Y-118951559D01*
X116912120Y-118893707D01*
X117158682Y-118728960D01*
X117858520Y-118029122D01*
X117904007Y-118029162D01*
X118247783Y-117887117D01*
X118511032Y-117624327D01*
X118653678Y-117280799D01*
X118654002Y-116908833D01*
X118511957Y-116565057D01*
X118249167Y-116301808D01*
X117905639Y-116159162D01*
X117533673Y-116158838D01*
X117189897Y-116300883D01*
X116926648Y-116563673D01*
X116784002Y-116907201D01*
X116783961Y-116954077D01*
X116306479Y-117431559D01*
X113109923Y-117431559D01*
X113081437Y-117362617D01*
X112818647Y-117099368D01*
X112475119Y-116956722D01*
X112103153Y-116956398D01*
X111759377Y-117098443D01*
X111496128Y-117361233D01*
X111353482Y-117704761D01*
X111353158Y-118076727D01*
X92375029Y-118076727D01*
X92375162Y-117924833D01*
X92233117Y-117581057D01*
X92200000Y-117547882D01*
X92200000Y-108475527D01*
X96163958Y-108475527D01*
X96306003Y-108819303D01*
X96568793Y-109082552D01*
X96912321Y-109225198D01*
X97284287Y-109225522D01*
X97628063Y-109083477D01*
X97661238Y-109050360D01*
X101402038Y-109050360D01*
X103610815Y-111259137D01*
X103398608Y-111470973D01*
X103255962Y-111814501D01*
X103255638Y-112186467D01*
X103397683Y-112530243D01*
X103660473Y-112793492D01*
X104004001Y-112936138D01*
X104134770Y-112936252D01*
X105648358Y-114449840D01*
X105648318Y-114495327D01*
X105790363Y-114839103D01*
X106053153Y-115102352D01*
X106396681Y-115244998D01*
X106768647Y-115245322D01*
X107112423Y-115103277D01*
X107375672Y-114840487D01*
X107518318Y-114496959D01*
X107518642Y-114124993D01*
X107453576Y-113967521D01*
X107727837Y-113967521D01*
X107756323Y-114036463D01*
X108019113Y-114299712D01*
X108362641Y-114442358D01*
X108734607Y-114442682D01*
X109078383Y-114300637D01*
X109341632Y-114037847D01*
X109484278Y-113694319D01*
X109484602Y-113322353D01*
X109440314Y-113215167D01*
X122254838Y-113215167D01*
X122396883Y-113558943D01*
X122659673Y-113822192D01*
X123003201Y-113964838D01*
X123050077Y-113964879D01*
X123700000Y-114614802D01*
X123700000Y-116277537D01*
X123667808Y-116309673D01*
X123525162Y-116653201D01*
X123524838Y-117025167D01*
X123666883Y-117368943D01*
X123929673Y-117632192D01*
X124273201Y-117774838D01*
X124645167Y-117775162D01*
X124988943Y-117633117D01*
X125252192Y-117370327D01*
X125394838Y-117026799D01*
X125395162Y-116654833D01*
X125253117Y-116311057D01*
X125220000Y-116277882D01*
X125220000Y-114300000D01*
X125175141Y-114074480D01*
X125162148Y-114009160D01*
X124997401Y-113762599D01*
X124125122Y-112890320D01*
X124125162Y-112844833D01*
X123983117Y-112501057D01*
X123720327Y-112237808D01*
X123376799Y-112095162D01*
X123004833Y-112094838D01*
X122661057Y-112236883D01*
X122397808Y-112499673D01*
X122255162Y-112843201D01*
X122254838Y-113215167D01*
X109440314Y-113215167D01*
X109342557Y-112978577D01*
X109079767Y-112715328D01*
X108736239Y-112572682D01*
X108640891Y-112572599D01*
X108540280Y-112505373D01*
X108249441Y-112447521D01*
X106948803Y-112447521D01*
X103388289Y-108887007D01*
X129717358Y-108887007D01*
X129859403Y-109230783D01*
X130122193Y-109494032D01*
X130465721Y-109636678D01*
X130512597Y-109636719D01*
X134505160Y-113629282D01*
X134505160Y-114233960D01*
X134563012Y-114524799D01*
X134727759Y-114771361D01*
X135499919Y-115543521D01*
X135746481Y-115708268D01*
X136037320Y-115766120D01*
X146634358Y-115766120D01*
X147009718Y-116141480D01*
X147009678Y-116186967D01*
X147086247Y-116372280D01*
X146992593Y-116372198D01*
X146648817Y-116514243D01*
X146615642Y-116547360D01*
X141955520Y-116547360D01*
X141664681Y-116605212D01*
X141664679Y-116605213D01*
X141664680Y-116605213D01*
X141549526Y-116682156D01*
X141460473Y-116682078D01*
X141116697Y-116824123D01*
X140853448Y-117086913D01*
X140710802Y-117430441D01*
X140710478Y-117802407D01*
X140852523Y-118146183D01*
X141115313Y-118409432D01*
X141458841Y-118552078D01*
X141830807Y-118552402D01*
X142174583Y-118410357D01*
X142437832Y-118147567D01*
X142471137Y-118067360D01*
X142532690Y-118067360D01*
X142478642Y-118197521D01*
X142478318Y-118569487D01*
X142620363Y-118913263D01*
X142883153Y-119176512D01*
X143226681Y-119319158D01*
X143598647Y-119319482D01*
X143942423Y-119177437D01*
X144205672Y-118914647D01*
X144268509Y-118763320D01*
X147086770Y-118763320D01*
X146990088Y-118859833D01*
X146847442Y-119203361D01*
X146847118Y-119575327D01*
X146989163Y-119919103D01*
X147022280Y-119952278D01*
X147022280Y-125430280D01*
X147080132Y-125721119D01*
X147244879Y-125967681D01*
X147491441Y-126132428D01*
X147782280Y-126190280D01*
X148073119Y-126132428D01*
X148146195Y-126083600D01*
X151451457Y-126083600D01*
X151483593Y-126115792D01*
X151827121Y-126258438D01*
X152199087Y-126258762D01*
X152542863Y-126116717D01*
X152806112Y-125853927D01*
X152948758Y-125510399D01*
X152949082Y-125138433D01*
X152807037Y-124794657D01*
X152544247Y-124531408D01*
X152200719Y-124388762D01*
X151828753Y-124388438D01*
X151484977Y-124530483D01*
X151451802Y-124563600D01*
X148542280Y-124563600D01*
X148542280Y-119952623D01*
X148574472Y-119920487D01*
X148688263Y-119646447D01*
X158698758Y-119646447D01*
X158840803Y-119990223D01*
X158873920Y-120023398D01*
X158873920Y-123833085D01*
X158851482Y-123887121D01*
X158851158Y-124259087D01*
X158993203Y-124602863D01*
X159255993Y-124866112D01*
X159599521Y-125008758D01*
X159971487Y-125009082D01*
X160315263Y-124867037D01*
X160578512Y-124604247D01*
X160721158Y-124260719D01*
X160721482Y-123888753D01*
X160579437Y-123544977D01*
X160393920Y-123359136D01*
X160393920Y-120276661D01*
X178602758Y-120276661D01*
X178814990Y-120790303D01*
X179207630Y-121183629D01*
X179720900Y-121396757D01*
X180276661Y-121397242D01*
X180790303Y-121185010D01*
X181183629Y-120792370D01*
X181396757Y-120279100D01*
X181397242Y-119723339D01*
X181185010Y-119209697D01*
X180792370Y-118816371D01*
X180279100Y-118603243D01*
X179723339Y-118602758D01*
X179209697Y-118814990D01*
X178816371Y-119207630D01*
X178603243Y-119720900D01*
X178602758Y-120276661D01*
X160393920Y-120276661D01*
X160393920Y-120023743D01*
X160426112Y-119991607D01*
X160568758Y-119648079D01*
X160569082Y-119276113D01*
X160427037Y-118932337D01*
X160164247Y-118669088D01*
X159820719Y-118526442D01*
X159448753Y-118526118D01*
X159104977Y-118668163D01*
X158841728Y-118930953D01*
X158699082Y-119274481D01*
X158698758Y-119646447D01*
X148688263Y-119646447D01*
X148717118Y-119576959D01*
X148717442Y-119204993D01*
X148582905Y-118879388D01*
X148783663Y-118796437D01*
X149046912Y-118533647D01*
X149189558Y-118190119D01*
X149189882Y-117818153D01*
X149047837Y-117474377D01*
X148785047Y-117211128D01*
X148441519Y-117068482D01*
X148090603Y-117068176D01*
X148036353Y-116936880D01*
X148130007Y-116936962D01*
X148473783Y-116794917D01*
X148737032Y-116532127D01*
X148879678Y-116188599D01*
X148880002Y-115816633D01*
X148737957Y-115472857D01*
X148475167Y-115209608D01*
X148254143Y-115117830D01*
X148473783Y-115027077D01*
X148737032Y-114764287D01*
X148879678Y-114420759D01*
X148880002Y-114048793D01*
X148737957Y-113705017D01*
X148475167Y-113441768D01*
X148131639Y-113299122D01*
X147759673Y-113298798D01*
X147415897Y-113440843D01*
X147382722Y-113473960D01*
X142512504Y-113473960D01*
X142254163Y-113215167D01*
X159084838Y-113215167D01*
X159226883Y-113558943D01*
X159489673Y-113822192D01*
X159833201Y-113964838D01*
X160205167Y-113965162D01*
X160548943Y-113823117D01*
X160582118Y-113790000D01*
X164537537Y-113790000D01*
X164569673Y-113822192D01*
X164913201Y-113964838D01*
X165285167Y-113965162D01*
X165628943Y-113823117D01*
X165892192Y-113560327D01*
X166034838Y-113216799D01*
X166035162Y-112844833D01*
X165893117Y-112501057D01*
X165630327Y-112237808D01*
X165286799Y-112095162D01*
X164914833Y-112094838D01*
X164571057Y-112236883D01*
X164537882Y-112270000D01*
X160582463Y-112270000D01*
X160550327Y-112237808D01*
X160206799Y-112095162D01*
X159834833Y-112094838D01*
X159491057Y-112236883D01*
X159227808Y-112499673D01*
X159085162Y-112843201D01*
X159084838Y-113215167D01*
X142254163Y-113215167D01*
X142252167Y-113213168D01*
X141908639Y-113070522D01*
X141536673Y-113070198D01*
X141192897Y-113212243D01*
X140929648Y-113475033D01*
X140787002Y-113818561D01*
X140786678Y-114190527D01*
X140809649Y-114246120D01*
X137113964Y-114246120D01*
X137134312Y-114225807D01*
X137276958Y-113882279D01*
X137277282Y-113510313D01*
X137135237Y-113166537D01*
X137102120Y-113133362D01*
X137102120Y-109882687D01*
X144246158Y-109882687D01*
X144388203Y-110226463D01*
X144650993Y-110489712D01*
X144994521Y-110632358D01*
X145041397Y-110632399D01*
X146950239Y-112541241D01*
X147196801Y-112705988D01*
X147487640Y-112763840D01*
X147768457Y-112763840D01*
X147800593Y-112796032D01*
X148144121Y-112938678D01*
X148516087Y-112939002D01*
X148859863Y-112796957D01*
X149123112Y-112534167D01*
X149265758Y-112190639D01*
X149266082Y-111818673D01*
X149124037Y-111474897D01*
X148861247Y-111211648D01*
X148517719Y-111069002D01*
X148145753Y-111068678D01*
X147801977Y-111210723D01*
X147785637Y-111227035D01*
X146675263Y-110116661D01*
X178602758Y-110116661D01*
X178814990Y-110630303D01*
X179207630Y-111023629D01*
X179720900Y-111236757D01*
X180276661Y-111237242D01*
X180790303Y-111025010D01*
X181183629Y-110632370D01*
X181396757Y-110119100D01*
X181397242Y-109563339D01*
X181185010Y-109049697D01*
X180792370Y-108656371D01*
X180279100Y-108443243D01*
X179723339Y-108442758D01*
X179209697Y-108654990D01*
X178816371Y-109047630D01*
X178603243Y-109560900D01*
X178602758Y-110116661D01*
X146675263Y-110116661D01*
X146116442Y-109557840D01*
X146116482Y-109512353D01*
X145974437Y-109168577D01*
X145711647Y-108905328D01*
X145368119Y-108762682D01*
X144996153Y-108762358D01*
X144652377Y-108904403D01*
X144389128Y-109167193D01*
X144246482Y-109510721D01*
X144246158Y-109882687D01*
X137102120Y-109882687D01*
X137102120Y-109335024D01*
X137362912Y-109074687D01*
X137505558Y-108731159D01*
X137505882Y-108359193D01*
X137363837Y-108015417D01*
X137101047Y-107752168D01*
X136757519Y-107609522D01*
X136385553Y-107609198D01*
X136041777Y-107751243D01*
X135778528Y-108014033D01*
X135635882Y-108357561D01*
X135635755Y-108503321D01*
X135582120Y-108772960D01*
X135582120Y-112556638D01*
X131587642Y-108562160D01*
X131587682Y-108516673D01*
X131445637Y-108172897D01*
X131182847Y-107909648D01*
X130839319Y-107767002D01*
X130467353Y-107766678D01*
X130123577Y-107908723D01*
X129860328Y-108171513D01*
X129717682Y-108515041D01*
X129717358Y-108887007D01*
X103388289Y-108887007D01*
X102254241Y-107752959D01*
X102007679Y-107588212D01*
X101716840Y-107530360D01*
X97661583Y-107530360D01*
X97629447Y-107498168D01*
X97285919Y-107355522D01*
X96913953Y-107355198D01*
X96570177Y-107497243D01*
X96306928Y-107760033D01*
X96164282Y-108103561D01*
X96163958Y-108475527D01*
X92200000Y-108475527D01*
X92200000Y-106994802D01*
X94544802Y-104650000D01*
X112262560Y-104650000D01*
X112262560Y-106350000D01*
X112306838Y-106585317D01*
X112445910Y-106801441D01*
X112658110Y-106946431D01*
X112910000Y-106997440D01*
X114610000Y-106997440D01*
X114845317Y-106953162D01*
X115061441Y-106814090D01*
X115206431Y-106601890D01*
X115220086Y-106534459D01*
X115249946Y-106579147D01*
X115731715Y-106901054D01*
X116300000Y-107014093D01*
X116868285Y-106901054D01*
X117350054Y-106579147D01*
X117570000Y-106249974D01*
X117789946Y-106579147D01*
X118271715Y-106901054D01*
X118840000Y-107014093D01*
X119408285Y-106901054D01*
X119890054Y-106579147D01*
X120110000Y-106249974D01*
X120329946Y-106579147D01*
X120811715Y-106901054D01*
X121380000Y-107014093D01*
X121948285Y-106901054D01*
X122430054Y-106579147D01*
X122650000Y-106249974D01*
X122869946Y-106579147D01*
X123351715Y-106901054D01*
X123920000Y-107014093D01*
X124488285Y-106901054D01*
X124970054Y-106579147D01*
X125190000Y-106249974D01*
X125409946Y-106579147D01*
X125891715Y-106901054D01*
X126460000Y-107014093D01*
X127028285Y-106901054D01*
X127510054Y-106579147D01*
X127730000Y-106249974D01*
X127949946Y-106579147D01*
X128431715Y-106901054D01*
X129000000Y-107014093D01*
X129568285Y-106901054D01*
X130050054Y-106579147D01*
X130270000Y-106249974D01*
X130489946Y-106579147D01*
X130971715Y-106901054D01*
X131540000Y-107014093D01*
X132108285Y-106901054D01*
X132590054Y-106579147D01*
X132810000Y-106249974D01*
X133029946Y-106579147D01*
X133511715Y-106901054D01*
X134080000Y-107014093D01*
X134648285Y-106901054D01*
X135130054Y-106579147D01*
X135350000Y-106249974D01*
X135569946Y-106579147D01*
X136051715Y-106901054D01*
X136620000Y-107014093D01*
X137188285Y-106901054D01*
X137670054Y-106579147D01*
X137991961Y-106097378D01*
X138105000Y-105529093D01*
X138105000Y-105470907D01*
X137991961Y-104902622D01*
X137670054Y-104420853D01*
X137188285Y-104098946D01*
X136620000Y-103985907D01*
X136051715Y-104098946D01*
X135569946Y-104420853D01*
X135350000Y-104750026D01*
X135130054Y-104420853D01*
X134648285Y-104098946D01*
X134080000Y-103985907D01*
X133511715Y-104098946D01*
X133029946Y-104420853D01*
X132810000Y-104750026D01*
X132590054Y-104420853D01*
X132108285Y-104098946D01*
X131540000Y-103985907D01*
X130971715Y-104098946D01*
X130489946Y-104420853D01*
X130270000Y-104750026D01*
X130050054Y-104420853D01*
X129568285Y-104098946D01*
X129000000Y-103985907D01*
X128431715Y-104098946D01*
X127949946Y-104420853D01*
X127730000Y-104750026D01*
X127510054Y-104420853D01*
X127028285Y-104098946D01*
X126460000Y-103985907D01*
X125891715Y-104098946D01*
X125409946Y-104420853D01*
X125190000Y-104750026D01*
X124970054Y-104420853D01*
X124488285Y-104098946D01*
X123920000Y-103985907D01*
X123351715Y-104098946D01*
X122869946Y-104420853D01*
X122650000Y-104750026D01*
X122430054Y-104420853D01*
X121948285Y-104098946D01*
X121380000Y-103985907D01*
X120811715Y-104098946D01*
X120329946Y-104420853D01*
X120110000Y-104750026D01*
X119890054Y-104420853D01*
X119408285Y-104098946D01*
X118840000Y-103985907D01*
X118271715Y-104098946D01*
X117789946Y-104420853D01*
X117570000Y-104750026D01*
X117350054Y-104420853D01*
X116868285Y-104098946D01*
X116300000Y-103985907D01*
X115731715Y-104098946D01*
X115249946Y-104420853D01*
X115222150Y-104462452D01*
X115213162Y-104414683D01*
X115074090Y-104198559D01*
X114861890Y-104053569D01*
X114610000Y-104002560D01*
X112910000Y-104002560D01*
X112674683Y-104046838D01*
X112458559Y-104185910D01*
X112313569Y-104398110D01*
X112262560Y-104650000D01*
X94544802Y-104650000D01*
X95564802Y-103630000D01*
X127707537Y-103630000D01*
X127739673Y-103662192D01*
X128083201Y-103804838D01*
X128455167Y-103805162D01*
X128798943Y-103663117D01*
X129062192Y-103400327D01*
X129204838Y-103056799D01*
X129205162Y-102684833D01*
X129063117Y-102341057D01*
X128800327Y-102077808D01*
X128456799Y-101935162D01*
X128084833Y-101934838D01*
X127741057Y-102076883D01*
X127707882Y-102110000D01*
X95250000Y-102110000D01*
X94959161Y-102167852D01*
X94712599Y-102332599D01*
X90902599Y-106142599D01*
X90737852Y-106389161D01*
X90680000Y-106680000D01*
X90680000Y-117547537D01*
X90647808Y-117579673D01*
X90505162Y-117923201D01*
X90504838Y-118295167D01*
X90646883Y-118638943D01*
X90696814Y-118688961D01*
X90665588Y-118720133D01*
X90522942Y-119063661D01*
X90522618Y-119435627D01*
X90664663Y-119779403D01*
X90697780Y-119812578D01*
X90697780Y-129384520D01*
X89565480Y-129384520D01*
X89274641Y-129442372D01*
X89028079Y-129607119D01*
X88760320Y-129874878D01*
X88714833Y-129874838D01*
X88371057Y-130016883D01*
X88107808Y-130279673D01*
X87965162Y-130623201D01*
X87964838Y-130995167D01*
X71247000Y-130995167D01*
X71247000Y-120276661D01*
X73602758Y-120276661D01*
X73814990Y-120790303D01*
X74207630Y-121183629D01*
X74720900Y-121396757D01*
X75276661Y-121397242D01*
X75790303Y-121185010D01*
X76183629Y-120792370D01*
X76396757Y-120279100D01*
X76397242Y-119723339D01*
X76185010Y-119209697D01*
X75792370Y-118816371D01*
X75279100Y-118603243D01*
X74723339Y-118602758D01*
X74209697Y-118814990D01*
X73816371Y-119207630D01*
X73603243Y-119720900D01*
X73602758Y-120276661D01*
X71247000Y-120276661D01*
X71247000Y-113573307D01*
X79394878Y-113573307D01*
X79536923Y-113917083D01*
X79570040Y-113950258D01*
X79570040Y-117082717D01*
X79537848Y-117114853D01*
X79395202Y-117458381D01*
X79394878Y-117830347D01*
X79536923Y-118174123D01*
X79799713Y-118437372D01*
X80143241Y-118580018D01*
X80515207Y-118580342D01*
X80858983Y-118438297D01*
X81122232Y-118175507D01*
X81264878Y-117831979D01*
X81265202Y-117460013D01*
X81123157Y-117116237D01*
X81090040Y-117083062D01*
X81090040Y-113950603D01*
X81122232Y-113918467D01*
X81264878Y-113574939D01*
X81265202Y-113202973D01*
X81123157Y-112859197D01*
X80860367Y-112595948D01*
X80516839Y-112453302D01*
X80144873Y-112452978D01*
X79801097Y-112595023D01*
X79537848Y-112857813D01*
X79395202Y-113201341D01*
X79394878Y-113573307D01*
X71247000Y-113573307D01*
X71247000Y-110820213D01*
X74199392Y-110820213D01*
X74268857Y-111062397D01*
X74792302Y-111249144D01*
X75347368Y-111221362D01*
X75731143Y-111062397D01*
X75800608Y-110820213D01*
X75000000Y-110019605D01*
X74199392Y-110820213D01*
X71247000Y-110820213D01*
X71247000Y-109632302D01*
X73590856Y-109632302D01*
X73618638Y-110187368D01*
X73777603Y-110571143D01*
X74019787Y-110640608D01*
X74820395Y-109840000D01*
X75179605Y-109840000D01*
X75980213Y-110640608D01*
X76222397Y-110571143D01*
X76409144Y-110047698D01*
X76381362Y-109492632D01*
X76222397Y-109108857D01*
X75980213Y-109039392D01*
X75179605Y-109840000D01*
X74820395Y-109840000D01*
X74019787Y-109039392D01*
X73777603Y-109108857D01*
X73590856Y-109632302D01*
X71247000Y-109632302D01*
X71247000Y-108859787D01*
X74199392Y-108859787D01*
X75000000Y-109660395D01*
X75800608Y-108859787D01*
X75731143Y-108617603D01*
X75207698Y-108430856D01*
X74652632Y-108458638D01*
X74268857Y-108617603D01*
X74199392Y-108859787D01*
X71247000Y-108859787D01*
X71247000Y-95472325D01*
X72614587Y-95472325D01*
X72976916Y-96349229D01*
X73647242Y-97020726D01*
X74523513Y-97384585D01*
X75472325Y-97385413D01*
X76349229Y-97023084D01*
X77020726Y-96352758D01*
X77384585Y-95476487D01*
X77384588Y-95472325D01*
X177614587Y-95472325D01*
X177976916Y-96349229D01*
X178647242Y-97020726D01*
X179523513Y-97384585D01*
X180472325Y-97385413D01*
X181349229Y-97023084D01*
X182020726Y-96352758D01*
X182384585Y-95476487D01*
X182385413Y-94527675D01*
X182023084Y-93650771D01*
X181352758Y-92979274D01*
X180476487Y-92615415D01*
X179527675Y-92614587D01*
X178650771Y-92976916D01*
X177979274Y-93647242D01*
X177615415Y-94523513D01*
X177614587Y-95472325D01*
X77384588Y-95472325D01*
X77385413Y-94527675D01*
X77023084Y-93650771D01*
X76352758Y-92979274D01*
X75476487Y-92615415D01*
X74527675Y-92614587D01*
X73650771Y-92976916D01*
X72979274Y-93647242D01*
X72615415Y-94523513D01*
X72614587Y-95472325D01*
X71247000Y-95472325D01*
X71247000Y-91567000D01*
X184023000Y-91567000D01*
X184023000Y-139315000D01*
X184023000Y-139315000D01*
G37*
X184023000Y-139315000D02*
X71247000Y-139315000D01*
X71247000Y-135472325D01*
X72614587Y-135472325D01*
X72976916Y-136349229D01*
X73647242Y-137020726D01*
X74523513Y-137384585D01*
X75472325Y-137385413D01*
X76349229Y-137023084D01*
X77020726Y-136352758D01*
X77384585Y-135476487D01*
X77384588Y-135472325D01*
X177614587Y-135472325D01*
X177976916Y-136349229D01*
X178647242Y-137020726D01*
X179523513Y-137384585D01*
X180472325Y-137385413D01*
X181349229Y-137023084D01*
X182020726Y-136352758D01*
X182384585Y-135476487D01*
X182385413Y-134527675D01*
X182023084Y-133650771D01*
X181352758Y-132979274D01*
X180476487Y-132615415D01*
X179527675Y-132614587D01*
X178650771Y-132976916D01*
X177979274Y-133647242D01*
X177615415Y-134523513D01*
X177614587Y-135472325D01*
X77384588Y-135472325D01*
X77385413Y-134527675D01*
X77023084Y-133650771D01*
X76352758Y-132979274D01*
X75476487Y-132615415D01*
X74527675Y-132614587D01*
X73650771Y-132976916D01*
X72979274Y-133647242D01*
X72615415Y-134523513D01*
X72614587Y-135472325D01*
X71247000Y-135472325D01*
X71247000Y-130995167D01*
X87964838Y-130995167D01*
X88106883Y-131338943D01*
X88369673Y-131602192D01*
X88713201Y-131744838D01*
X89085167Y-131745162D01*
X89428943Y-131603117D01*
X89692192Y-131340327D01*
X89834838Y-130996799D01*
X89834879Y-130949923D01*
X89880282Y-130904520D01*
X91142978Y-130904520D01*
X91545219Y-131306761D01*
X91791780Y-131471508D01*
X92082620Y-131529360D01*
X106108500Y-131529360D01*
X106399339Y-131471508D01*
X106645901Y-131306761D01*
X108539122Y-129413540D01*
X113268760Y-129413540D01*
X113559599Y-129355688D01*
X113806161Y-129190941D01*
X118927860Y-124069242D01*
X118973347Y-124069282D01*
X119317123Y-123927237D01*
X119580372Y-123664447D01*
X119723018Y-123320919D01*
X119723342Y-122948953D01*
X119664361Y-122806207D01*
X133715318Y-122806207D01*
X133857363Y-123149983D01*
X134120153Y-123413232D01*
X134463681Y-123555878D01*
X134835647Y-123556202D01*
X135179423Y-123414157D01*
X135442672Y-123151367D01*
X135585318Y-122807839D01*
X135585381Y-122735541D01*
X136431000Y-121889922D01*
X136476487Y-121889962D01*
X136820263Y-121747917D01*
X137083512Y-121485127D01*
X137226158Y-121141599D01*
X137226482Y-120769633D01*
X137084437Y-120425857D01*
X136821647Y-120162608D01*
X136478119Y-120019962D01*
X136106153Y-120019638D01*
X135762377Y-120161683D01*
X135499128Y-120424473D01*
X135356482Y-120768001D01*
X135356441Y-120814877D01*
X134485422Y-121685896D01*
X134465313Y-121685878D01*
X134121537Y-121827923D01*
X133858288Y-122090713D01*
X133715642Y-122434241D01*
X133715318Y-122806207D01*
X119664361Y-122806207D01*
X119581297Y-122605177D01*
X119318507Y-122341928D01*
X118974979Y-122199282D01*
X118603013Y-122198958D01*
X118259237Y-122341003D01*
X117995988Y-122603793D01*
X117853342Y-122947321D01*
X117853301Y-122994197D01*
X112953958Y-127893540D01*
X108224320Y-127893540D01*
X107933480Y-127951392D01*
X107686919Y-128116139D01*
X105793698Y-130009360D01*
X92397422Y-130009360D01*
X92304522Y-129916460D01*
X103530400Y-129916460D01*
X103821239Y-129858608D01*
X104067801Y-129693861D01*
X104809481Y-128952181D01*
X104974228Y-128705619D01*
X105032080Y-128414780D01*
X105032080Y-126143767D01*
X105577198Y-126143767D01*
X105719243Y-126487543D01*
X105982033Y-126750792D01*
X106325561Y-126893438D01*
X106697527Y-126893762D01*
X107041303Y-126751717D01*
X107304552Y-126488927D01*
X107447198Y-126145399D01*
X107447522Y-125773433D01*
X107305477Y-125429657D01*
X107042687Y-125166408D01*
X106699159Y-125023762D01*
X106327193Y-125023438D01*
X105983417Y-125165483D01*
X105720168Y-125428273D01*
X105577522Y-125771801D01*
X105577198Y-126143767D01*
X105032080Y-126143767D01*
X105032080Y-122624703D01*
X105064272Y-122592567D01*
X105206918Y-122249039D01*
X105207242Y-121877073D01*
X105153047Y-121745912D01*
X105230193Y-121823192D01*
X105300240Y-121852278D01*
X105300240Y-122810417D01*
X105268048Y-122842553D01*
X105125402Y-123186081D01*
X105125078Y-123558047D01*
X105267123Y-123901823D01*
X105529913Y-124165072D01*
X105873441Y-124307718D01*
X106245407Y-124308042D01*
X106589183Y-124165997D01*
X106852432Y-123903207D01*
X106995078Y-123559679D01*
X106995402Y-123187713D01*
X106853357Y-122843937D01*
X106820240Y-122810762D01*
X106820240Y-121330720D01*
X106762388Y-121039881D01*
X106695600Y-120939925D01*
X106695682Y-120845833D01*
X106553637Y-120502057D01*
X106290847Y-120238808D01*
X105947319Y-120096162D01*
X105575353Y-120095838D01*
X105231577Y-120237883D01*
X104968328Y-120500673D01*
X104825682Y-120844201D01*
X104825358Y-121216167D01*
X104879553Y-121347328D01*
X104802407Y-121270048D01*
X104458879Y-121127402D01*
X104086913Y-121127078D01*
X103743137Y-121269123D01*
X103479888Y-121531913D01*
X103337242Y-121875441D01*
X103336918Y-122247407D01*
X103478963Y-122591183D01*
X103512080Y-122624358D01*
X103512080Y-128099978D01*
X103215598Y-128396460D01*
X92908660Y-128396460D01*
X92908660Y-123368923D01*
X92940852Y-123336787D01*
X93083498Y-122993259D01*
X93083822Y-122621293D01*
X92941777Y-122277517D01*
X92678987Y-122014268D01*
X92335459Y-121871622D01*
X92217780Y-121871519D01*
X92217780Y-120089004D01*
X112023557Y-120089004D01*
X112165602Y-120432780D01*
X112198719Y-120465955D01*
X112198719Y-120578719D01*
X112256571Y-120869558D01*
X112421318Y-121116120D01*
X112492599Y-121187401D01*
X112739161Y-121352148D01*
X113030000Y-121410000D01*
X121357537Y-121410000D01*
X121389673Y-121442192D01*
X121733201Y-121584838D01*
X122105167Y-121585162D01*
X122448943Y-121443117D01*
X122712192Y-121180327D01*
X122854838Y-120836799D01*
X122855162Y-120464833D01*
X122713117Y-120121057D01*
X122450327Y-119857808D01*
X122106799Y-119715162D01*
X121734833Y-119714838D01*
X121391057Y-119856883D01*
X121357882Y-119890000D01*
X113893732Y-119890000D01*
X113893881Y-119718670D01*
X113751836Y-119374894D01*
X113489046Y-119111645D01*
X113145518Y-118968999D01*
X112773552Y-118968675D01*
X112429776Y-119110720D01*
X112166527Y-119373510D01*
X112023881Y-119717038D01*
X112023557Y-120089004D01*
X92217780Y-120089004D01*
X92217780Y-119812923D01*
X92249972Y-119780787D01*
X92392618Y-119437259D01*
X92392942Y-119065293D01*
X92250897Y-118721517D01*
X92200966Y-118671499D01*
X92232192Y-118640327D01*
X92374838Y-118296799D01*
X92375029Y-118076727D01*
X111353158Y-118076727D01*
X111495203Y-118420503D01*
X111757993Y-118683752D01*
X112101521Y-118826398D01*
X112196869Y-118826481D01*
X112297480Y-118893707D01*
X112588319Y-118951559D01*
X116621281Y-118951559D01*
X116912120Y-118893707D01*
X117158682Y-118728960D01*
X117858520Y-118029122D01*
X117904007Y-118029162D01*
X118247783Y-117887117D01*
X118511032Y-117624327D01*
X118653678Y-117280799D01*
X118654002Y-116908833D01*
X118511957Y-116565057D01*
X118249167Y-116301808D01*
X117905639Y-116159162D01*
X117533673Y-116158838D01*
X117189897Y-116300883D01*
X116926648Y-116563673D01*
X116784002Y-116907201D01*
X116783961Y-116954077D01*
X116306479Y-117431559D01*
X113109923Y-117431559D01*
X113081437Y-117362617D01*
X112818647Y-117099368D01*
X112475119Y-116956722D01*
X112103153Y-116956398D01*
X111759377Y-117098443D01*
X111496128Y-117361233D01*
X111353482Y-117704761D01*
X111353158Y-118076727D01*
X92375029Y-118076727D01*
X92375162Y-117924833D01*
X92233117Y-117581057D01*
X92200000Y-117547882D01*
X92200000Y-108475527D01*
X96163958Y-108475527D01*
X96306003Y-108819303D01*
X96568793Y-109082552D01*
X96912321Y-109225198D01*
X97284287Y-109225522D01*
X97628063Y-109083477D01*
X97661238Y-109050360D01*
X101402038Y-109050360D01*
X103610815Y-111259137D01*
X103398608Y-111470973D01*
X103255962Y-111814501D01*
X103255638Y-112186467D01*
X103397683Y-112530243D01*
X103660473Y-112793492D01*
X104004001Y-112936138D01*
X104134770Y-112936252D01*
X105648358Y-114449840D01*
X105648318Y-114495327D01*
X105790363Y-114839103D01*
X106053153Y-115102352D01*
X106396681Y-115244998D01*
X106768647Y-115245322D01*
X107112423Y-115103277D01*
X107375672Y-114840487D01*
X107518318Y-114496959D01*
X107518642Y-114124993D01*
X107453576Y-113967521D01*
X107727837Y-113967521D01*
X107756323Y-114036463D01*
X108019113Y-114299712D01*
X108362641Y-114442358D01*
X108734607Y-114442682D01*
X109078383Y-114300637D01*
X109341632Y-114037847D01*
X109484278Y-113694319D01*
X109484602Y-113322353D01*
X109440314Y-113215167D01*
X122254838Y-113215167D01*
X122396883Y-113558943D01*
X122659673Y-113822192D01*
X123003201Y-113964838D01*
X123050077Y-113964879D01*
X123700000Y-114614802D01*
X123700000Y-116277537D01*
X123667808Y-116309673D01*
X123525162Y-116653201D01*
X123524838Y-117025167D01*
X123666883Y-117368943D01*
X123929673Y-117632192D01*
X124273201Y-117774838D01*
X124645167Y-117775162D01*
X124988943Y-117633117D01*
X125252192Y-117370327D01*
X125394838Y-117026799D01*
X125395162Y-116654833D01*
X125253117Y-116311057D01*
X125220000Y-116277882D01*
X125220000Y-114300000D01*
X125175141Y-114074480D01*
X125162148Y-114009160D01*
X124997401Y-113762599D01*
X124125122Y-112890320D01*
X124125162Y-112844833D01*
X123983117Y-112501057D01*
X123720327Y-112237808D01*
X123376799Y-112095162D01*
X123004833Y-112094838D01*
X122661057Y-112236883D01*
X122397808Y-112499673D01*
X122255162Y-112843201D01*
X122254838Y-113215167D01*
X109440314Y-113215167D01*
X109342557Y-112978577D01*
X109079767Y-112715328D01*
X108736239Y-112572682D01*
X108640891Y-112572599D01*
X108540280Y-112505373D01*
X108249441Y-112447521D01*
X106948803Y-112447521D01*
X103388289Y-108887007D01*
X129717358Y-108887007D01*
X129859403Y-109230783D01*
X130122193Y-109494032D01*
X130465721Y-109636678D01*
X130512597Y-109636719D01*
X134505160Y-113629282D01*
X134505160Y-114233960D01*
X134563012Y-114524799D01*
X134727759Y-114771361D01*
X135499919Y-115543521D01*
X135746481Y-115708268D01*
X136037320Y-115766120D01*
X146634358Y-115766120D01*
X147009718Y-116141480D01*
X147009678Y-116186967D01*
X147086247Y-116372280D01*
X146992593Y-116372198D01*
X146648817Y-116514243D01*
X146615642Y-116547360D01*
X141955520Y-116547360D01*
X141664681Y-116605212D01*
X141664679Y-116605213D01*
X141664680Y-116605213D01*
X141549526Y-116682156D01*
X141460473Y-116682078D01*
X141116697Y-116824123D01*
X140853448Y-117086913D01*
X140710802Y-117430441D01*
X140710478Y-117802407D01*
X140852523Y-118146183D01*
X141115313Y-118409432D01*
X141458841Y-118552078D01*
X141830807Y-118552402D01*
X142174583Y-118410357D01*
X142437832Y-118147567D01*
X142471137Y-118067360D01*
X142532690Y-118067360D01*
X142478642Y-118197521D01*
X142478318Y-118569487D01*
X142620363Y-118913263D01*
X142883153Y-119176512D01*
X143226681Y-119319158D01*
X143598647Y-119319482D01*
X143942423Y-119177437D01*
X144205672Y-118914647D01*
X144268509Y-118763320D01*
X147086770Y-118763320D01*
X146990088Y-118859833D01*
X146847442Y-119203361D01*
X146847118Y-119575327D01*
X146989163Y-119919103D01*
X147022280Y-119952278D01*
X147022280Y-125430280D01*
X147080132Y-125721119D01*
X147244879Y-125967681D01*
X147491441Y-126132428D01*
X147782280Y-126190280D01*
X148073119Y-126132428D01*
X148146195Y-126083600D01*
X151451457Y-126083600D01*
X151483593Y-126115792D01*
X151827121Y-126258438D01*
X152199087Y-126258762D01*
X152542863Y-126116717D01*
X152806112Y-125853927D01*
X152948758Y-125510399D01*
X152949082Y-125138433D01*
X152807037Y-124794657D01*
X152544247Y-124531408D01*
X152200719Y-124388762D01*
X151828753Y-124388438D01*
X151484977Y-124530483D01*
X151451802Y-124563600D01*
X148542280Y-124563600D01*
X148542280Y-119952623D01*
X148574472Y-119920487D01*
X148688263Y-119646447D01*
X158698758Y-119646447D01*
X158840803Y-119990223D01*
X158873920Y-120023398D01*
X158873920Y-123833085D01*
X158851482Y-123887121D01*
X158851158Y-124259087D01*
X158993203Y-124602863D01*
X159255993Y-124866112D01*
X159599521Y-125008758D01*
X159971487Y-125009082D01*
X160315263Y-124867037D01*
X160578512Y-124604247D01*
X160721158Y-124260719D01*
X160721482Y-123888753D01*
X160579437Y-123544977D01*
X160393920Y-123359136D01*
X160393920Y-120276661D01*
X178602758Y-120276661D01*
X178814990Y-120790303D01*
X179207630Y-121183629D01*
X179720900Y-121396757D01*
X180276661Y-121397242D01*
X180790303Y-121185010D01*
X181183629Y-120792370D01*
X181396757Y-120279100D01*
X181397242Y-119723339D01*
X181185010Y-119209697D01*
X180792370Y-118816371D01*
X180279100Y-118603243D01*
X179723339Y-118602758D01*
X179209697Y-118814990D01*
X178816371Y-119207630D01*
X178603243Y-119720900D01*
X178602758Y-120276661D01*
X160393920Y-120276661D01*
X160393920Y-120023743D01*
X160426112Y-119991607D01*
X160568758Y-119648079D01*
X160569082Y-119276113D01*
X160427037Y-118932337D01*
X160164247Y-118669088D01*
X159820719Y-118526442D01*
X159448753Y-118526118D01*
X159104977Y-118668163D01*
X158841728Y-118930953D01*
X158699082Y-119274481D01*
X158698758Y-119646447D01*
X148688263Y-119646447D01*
X148717118Y-119576959D01*
X148717442Y-119204993D01*
X148582905Y-118879388D01*
X148783663Y-118796437D01*
X149046912Y-118533647D01*
X149189558Y-118190119D01*
X149189882Y-117818153D01*
X149047837Y-117474377D01*
X148785047Y-117211128D01*
X148441519Y-117068482D01*
X148090603Y-117068176D01*
X148036353Y-116936880D01*
X148130007Y-116936962D01*
X148473783Y-116794917D01*
X148737032Y-116532127D01*
X148879678Y-116188599D01*
X148880002Y-115816633D01*
X148737957Y-115472857D01*
X148475167Y-115209608D01*
X148254143Y-115117830D01*
X148473783Y-115027077D01*
X148737032Y-114764287D01*
X148879678Y-114420759D01*
X148880002Y-114048793D01*
X148737957Y-113705017D01*
X148475167Y-113441768D01*
X148131639Y-113299122D01*
X147759673Y-113298798D01*
X147415897Y-113440843D01*
X147382722Y-113473960D01*
X142512504Y-113473960D01*
X142254163Y-113215167D01*
X159084838Y-113215167D01*
X159226883Y-113558943D01*
X159489673Y-113822192D01*
X159833201Y-113964838D01*
X160205167Y-113965162D01*
X160548943Y-113823117D01*
X160582118Y-113790000D01*
X164537537Y-113790000D01*
X164569673Y-113822192D01*
X164913201Y-113964838D01*
X165285167Y-113965162D01*
X165628943Y-113823117D01*
X165892192Y-113560327D01*
X166034838Y-113216799D01*
X166035162Y-112844833D01*
X165893117Y-112501057D01*
X165630327Y-112237808D01*
X165286799Y-112095162D01*
X164914833Y-112094838D01*
X164571057Y-112236883D01*
X164537882Y-112270000D01*
X160582463Y-112270000D01*
X160550327Y-112237808D01*
X160206799Y-112095162D01*
X159834833Y-112094838D01*
X159491057Y-112236883D01*
X159227808Y-112499673D01*
X159085162Y-112843201D01*
X159084838Y-113215167D01*
X142254163Y-113215167D01*
X142252167Y-113213168D01*
X141908639Y-113070522D01*
X141536673Y-113070198D01*
X141192897Y-113212243D01*
X140929648Y-113475033D01*
X140787002Y-113818561D01*
X140786678Y-114190527D01*
X140809649Y-114246120D01*
X137113964Y-114246120D01*
X137134312Y-114225807D01*
X137276958Y-113882279D01*
X137277282Y-113510313D01*
X137135237Y-113166537D01*
X137102120Y-113133362D01*
X137102120Y-109882687D01*
X144246158Y-109882687D01*
X144388203Y-110226463D01*
X144650993Y-110489712D01*
X144994521Y-110632358D01*
X145041397Y-110632399D01*
X146950239Y-112541241D01*
X147196801Y-112705988D01*
X147487640Y-112763840D01*
X147768457Y-112763840D01*
X147800593Y-112796032D01*
X148144121Y-112938678D01*
X148516087Y-112939002D01*
X148859863Y-112796957D01*
X149123112Y-112534167D01*
X149265758Y-112190639D01*
X149266082Y-111818673D01*
X149124037Y-111474897D01*
X148861247Y-111211648D01*
X148517719Y-111069002D01*
X148145753Y-111068678D01*
X147801977Y-111210723D01*
X147785637Y-111227035D01*
X146675263Y-110116661D01*
X178602758Y-110116661D01*
X178814990Y-110630303D01*
X179207630Y-111023629D01*
X179720900Y-111236757D01*
X180276661Y-111237242D01*
X180790303Y-111025010D01*
X181183629Y-110632370D01*
X181396757Y-110119100D01*
X181397242Y-109563339D01*
X181185010Y-109049697D01*
X180792370Y-108656371D01*
X180279100Y-108443243D01*
X179723339Y-108442758D01*
X179209697Y-108654990D01*
X178816371Y-109047630D01*
X178603243Y-109560900D01*
X178602758Y-110116661D01*
X146675263Y-110116661D01*
X146116442Y-109557840D01*
X146116482Y-109512353D01*
X145974437Y-109168577D01*
X145711647Y-108905328D01*
X145368119Y-108762682D01*
X144996153Y-108762358D01*
X144652377Y-108904403D01*
X144389128Y-109167193D01*
X144246482Y-109510721D01*
X144246158Y-109882687D01*
X137102120Y-109882687D01*
X137102120Y-109335024D01*
X137362912Y-109074687D01*
X137505558Y-108731159D01*
X137505882Y-108359193D01*
X137363837Y-108015417D01*
X137101047Y-107752168D01*
X136757519Y-107609522D01*
X136385553Y-107609198D01*
X136041777Y-107751243D01*
X135778528Y-108014033D01*
X135635882Y-108357561D01*
X135635755Y-108503321D01*
X135582120Y-108772960D01*
X135582120Y-112556638D01*
X131587642Y-108562160D01*
X131587682Y-108516673D01*
X131445637Y-108172897D01*
X131182847Y-107909648D01*
X130839319Y-107767002D01*
X130467353Y-107766678D01*
X130123577Y-107908723D01*
X129860328Y-108171513D01*
X129717682Y-108515041D01*
X129717358Y-108887007D01*
X103388289Y-108887007D01*
X102254241Y-107752959D01*
X102007679Y-107588212D01*
X101716840Y-107530360D01*
X97661583Y-107530360D01*
X97629447Y-107498168D01*
X97285919Y-107355522D01*
X96913953Y-107355198D01*
X96570177Y-107497243D01*
X96306928Y-107760033D01*
X96164282Y-108103561D01*
X96163958Y-108475527D01*
X92200000Y-108475527D01*
X92200000Y-106994802D01*
X94544802Y-104650000D01*
X112262560Y-104650000D01*
X112262560Y-106350000D01*
X112306838Y-106585317D01*
X112445910Y-106801441D01*
X112658110Y-106946431D01*
X112910000Y-106997440D01*
X114610000Y-106997440D01*
X114845317Y-106953162D01*
X115061441Y-106814090D01*
X115206431Y-106601890D01*
X115220086Y-106534459D01*
X115249946Y-106579147D01*
X115731715Y-106901054D01*
X116300000Y-107014093D01*
X116868285Y-106901054D01*
X117350054Y-106579147D01*
X117570000Y-106249974D01*
X117789946Y-106579147D01*
X118271715Y-106901054D01*
X118840000Y-107014093D01*
X119408285Y-106901054D01*
X119890054Y-106579147D01*
X120110000Y-106249974D01*
X120329946Y-106579147D01*
X120811715Y-106901054D01*
X121380000Y-107014093D01*
X121948285Y-106901054D01*
X122430054Y-106579147D01*
X122650000Y-106249974D01*
X122869946Y-106579147D01*
X123351715Y-106901054D01*
X123920000Y-107014093D01*
X124488285Y-106901054D01*
X124970054Y-106579147D01*
X125190000Y-106249974D01*
X125409946Y-106579147D01*
X125891715Y-106901054D01*
X126460000Y-107014093D01*
X127028285Y-106901054D01*
X127510054Y-106579147D01*
X127730000Y-106249974D01*
X127949946Y-106579147D01*
X128431715Y-106901054D01*
X129000000Y-107014093D01*
X129568285Y-106901054D01*
X130050054Y-106579147D01*
X130270000Y-106249974D01*
X130489946Y-106579147D01*
X130971715Y-106901054D01*
X131540000Y-107014093D01*
X132108285Y-106901054D01*
X132590054Y-106579147D01*
X132810000Y-106249974D01*
X133029946Y-106579147D01*
X133511715Y-106901054D01*
X134080000Y-107014093D01*
X134648285Y-106901054D01*
X135130054Y-106579147D01*
X135350000Y-106249974D01*
X135569946Y-106579147D01*
X136051715Y-106901054D01*
X136620000Y-107014093D01*
X137188285Y-106901054D01*
X137670054Y-106579147D01*
X137991961Y-106097378D01*
X138105000Y-105529093D01*
X138105000Y-105470907D01*
X137991961Y-104902622D01*
X137670054Y-104420853D01*
X137188285Y-104098946D01*
X136620000Y-103985907D01*
X136051715Y-104098946D01*
X135569946Y-104420853D01*
X135350000Y-104750026D01*
X135130054Y-104420853D01*
X134648285Y-104098946D01*
X134080000Y-103985907D01*
X133511715Y-104098946D01*
X133029946Y-104420853D01*
X132810000Y-104750026D01*
X132590054Y-104420853D01*
X132108285Y-104098946D01*
X131540000Y-103985907D01*
X130971715Y-104098946D01*
X130489946Y-104420853D01*
X130270000Y-104750026D01*
X130050054Y-104420853D01*
X129568285Y-104098946D01*
X129000000Y-103985907D01*
X128431715Y-104098946D01*
X127949946Y-104420853D01*
X127730000Y-104750026D01*
X127510054Y-104420853D01*
X127028285Y-104098946D01*
X126460000Y-103985907D01*
X125891715Y-104098946D01*
X125409946Y-104420853D01*
X125190000Y-104750026D01*
X124970054Y-104420853D01*
X124488285Y-104098946D01*
X123920000Y-103985907D01*
X123351715Y-104098946D01*
X122869946Y-104420853D01*
X122650000Y-104750026D01*
X122430054Y-104420853D01*
X121948285Y-104098946D01*
X121380000Y-103985907D01*
X120811715Y-104098946D01*
X120329946Y-104420853D01*
X120110000Y-104750026D01*
X119890054Y-104420853D01*
X119408285Y-104098946D01*
X118840000Y-103985907D01*
X118271715Y-104098946D01*
X117789946Y-104420853D01*
X117570000Y-104750026D01*
X117350054Y-104420853D01*
X116868285Y-104098946D01*
X116300000Y-103985907D01*
X115731715Y-104098946D01*
X115249946Y-104420853D01*
X115222150Y-104462452D01*
X115213162Y-104414683D01*
X115074090Y-104198559D01*
X114861890Y-104053569D01*
X114610000Y-104002560D01*
X112910000Y-104002560D01*
X112674683Y-104046838D01*
X112458559Y-104185910D01*
X112313569Y-104398110D01*
X112262560Y-104650000D01*
X94544802Y-104650000D01*
X95564802Y-103630000D01*
X127707537Y-103630000D01*
X127739673Y-103662192D01*
X128083201Y-103804838D01*
X128455167Y-103805162D01*
X128798943Y-103663117D01*
X129062192Y-103400327D01*
X129204838Y-103056799D01*
X129205162Y-102684833D01*
X129063117Y-102341057D01*
X128800327Y-102077808D01*
X128456799Y-101935162D01*
X128084833Y-101934838D01*
X127741057Y-102076883D01*
X127707882Y-102110000D01*
X95250000Y-102110000D01*
X94959161Y-102167852D01*
X94712599Y-102332599D01*
X90902599Y-106142599D01*
X90737852Y-106389161D01*
X90680000Y-106680000D01*
X90680000Y-117547537D01*
X90647808Y-117579673D01*
X90505162Y-117923201D01*
X90504838Y-118295167D01*
X90646883Y-118638943D01*
X90696814Y-118688961D01*
X90665588Y-118720133D01*
X90522942Y-119063661D01*
X90522618Y-119435627D01*
X90664663Y-119779403D01*
X90697780Y-119812578D01*
X90697780Y-129384520D01*
X89565480Y-129384520D01*
X89274641Y-129442372D01*
X89028079Y-129607119D01*
X88760320Y-129874878D01*
X88714833Y-129874838D01*
X88371057Y-130016883D01*
X88107808Y-130279673D01*
X87965162Y-130623201D01*
X87964838Y-130995167D01*
X71247000Y-130995167D01*
X71247000Y-120276661D01*
X73602758Y-120276661D01*
X73814990Y-120790303D01*
X74207630Y-121183629D01*
X74720900Y-121396757D01*
X75276661Y-121397242D01*
X75790303Y-121185010D01*
X76183629Y-120792370D01*
X76396757Y-120279100D01*
X76397242Y-119723339D01*
X76185010Y-119209697D01*
X75792370Y-118816371D01*
X75279100Y-118603243D01*
X74723339Y-118602758D01*
X74209697Y-118814990D01*
X73816371Y-119207630D01*
X73603243Y-119720900D01*
X73602758Y-120276661D01*
X71247000Y-120276661D01*
X71247000Y-113573307D01*
X79394878Y-113573307D01*
X79536923Y-113917083D01*
X79570040Y-113950258D01*
X79570040Y-117082717D01*
X79537848Y-117114853D01*
X79395202Y-117458381D01*
X79394878Y-117830347D01*
X79536923Y-118174123D01*
X79799713Y-118437372D01*
X80143241Y-118580018D01*
X80515207Y-118580342D01*
X80858983Y-118438297D01*
X81122232Y-118175507D01*
X81264878Y-117831979D01*
X81265202Y-117460013D01*
X81123157Y-117116237D01*
X81090040Y-117083062D01*
X81090040Y-113950603D01*
X81122232Y-113918467D01*
X81264878Y-113574939D01*
X81265202Y-113202973D01*
X81123157Y-112859197D01*
X80860367Y-112595948D01*
X80516839Y-112453302D01*
X80144873Y-112452978D01*
X79801097Y-112595023D01*
X79537848Y-112857813D01*
X79395202Y-113201341D01*
X79394878Y-113573307D01*
X71247000Y-113573307D01*
X71247000Y-110820213D01*
X74199392Y-110820213D01*
X74268857Y-111062397D01*
X74792302Y-111249144D01*
X75347368Y-111221362D01*
X75731143Y-111062397D01*
X75800608Y-110820213D01*
X75000000Y-110019605D01*
X74199392Y-110820213D01*
X71247000Y-110820213D01*
X71247000Y-109632302D01*
X73590856Y-109632302D01*
X73618638Y-110187368D01*
X73777603Y-110571143D01*
X74019787Y-110640608D01*
X74820395Y-109840000D01*
X75179605Y-109840000D01*
X75980213Y-110640608D01*
X76222397Y-110571143D01*
X76409144Y-110047698D01*
X76381362Y-109492632D01*
X76222397Y-109108857D01*
X75980213Y-109039392D01*
X75179605Y-109840000D01*
X74820395Y-109840000D01*
X74019787Y-109039392D01*
X73777603Y-109108857D01*
X73590856Y-109632302D01*
X71247000Y-109632302D01*
X71247000Y-108859787D01*
X74199392Y-108859787D01*
X75000000Y-109660395D01*
X75800608Y-108859787D01*
X75731143Y-108617603D01*
X75207698Y-108430856D01*
X74652632Y-108458638D01*
X74268857Y-108617603D01*
X74199392Y-108859787D01*
X71247000Y-108859787D01*
X71247000Y-95472325D01*
X72614587Y-95472325D01*
X72976916Y-96349229D01*
X73647242Y-97020726D01*
X74523513Y-97384585D01*
X75472325Y-97385413D01*
X76349229Y-97023084D01*
X77020726Y-96352758D01*
X77384585Y-95476487D01*
X77384588Y-95472325D01*
X177614587Y-95472325D01*
X177976916Y-96349229D01*
X178647242Y-97020726D01*
X179523513Y-97384585D01*
X180472325Y-97385413D01*
X181349229Y-97023084D01*
X182020726Y-96352758D01*
X182384585Y-95476487D01*
X182385413Y-94527675D01*
X182023084Y-93650771D01*
X181352758Y-92979274D01*
X180476487Y-92615415D01*
X179527675Y-92614587D01*
X178650771Y-92976916D01*
X177979274Y-93647242D01*
X177615415Y-94523513D01*
X177614587Y-95472325D01*
X77384588Y-95472325D01*
X77385413Y-94527675D01*
X77023084Y-93650771D01*
X76352758Y-92979274D01*
X75476487Y-92615415D01*
X74527675Y-92614587D01*
X73650771Y-92976916D01*
X72979274Y-93647242D01*
X72615415Y-94523513D01*
X72614587Y-95472325D01*
X71247000Y-95472325D01*
X71247000Y-91567000D01*
X184023000Y-91567000D01*
X184023000Y-139315000D01*
M02*
