G04 #@! TF.FileFunction,Copper,L1,Top,Signal*
%FSLAX46Y46*%
G04 Gerber Fmt 4.6, Leading zero omitted, Abs format (unit mm)*
G04 Created by KiCad (PCBNEW 4.0.7) date Sunday, December 31, 2017 'PMt' 04:52:57 PM*
%MOMM*%
%LPD*%
G01*
G04 APERTURE LIST*
%ADD10C,0.100000*%
%ADD11R,1.100000X0.500000*%
%ADD12R,1.200000X0.750000*%
%ADD13R,0.750000X1.200000*%
%ADD14R,1.700000X1.700000*%
%ADD15O,1.700000X1.700000*%
%ADD16C,1.524000*%
%ADD17R,0.900000X0.800000*%
%ADD18R,1.200000X0.900000*%
%ADD19R,0.900000X1.200000*%
%ADD20C,0.600000*%
%ADD21C,0.250000*%
G04 APERTURE END LIST*
D10*
D11*
X155712160Y-121937780D03*
X155712160Y-120667780D03*
X155712160Y-119397780D03*
X155712160Y-118127780D03*
X155712160Y-116857780D03*
X155712160Y-115587780D03*
X155712160Y-114317780D03*
X155712160Y-113047780D03*
X150632160Y-113047780D03*
X150632160Y-114317780D03*
X150632160Y-115587780D03*
X150632160Y-116857780D03*
X150632160Y-118127780D03*
X150632160Y-119397780D03*
X150632160Y-120667780D03*
X150632160Y-121937780D03*
X94213680Y-112016540D03*
X94213680Y-114556540D03*
X94213680Y-117096540D03*
X94213680Y-119636540D03*
X94213680Y-122176540D03*
X94213680Y-124716540D03*
X94213680Y-127256540D03*
X101833680Y-127256540D03*
X101833680Y-124716540D03*
X101833680Y-122176540D03*
X101833680Y-119636540D03*
X101833680Y-117096540D03*
X101833680Y-114556540D03*
X101833680Y-112016540D03*
D12*
X88231940Y-115272820D03*
X90131940Y-115272820D03*
D13*
X124924820Y-124559060D03*
X124924820Y-122659060D03*
D12*
X83820000Y-128270000D03*
X81920000Y-128270000D03*
X143929020Y-123916440D03*
X145829020Y-123916440D03*
X162011280Y-122618500D03*
X163911280Y-122618500D03*
X82234960Y-118381780D03*
X84134960Y-118381780D03*
X82234960Y-123926600D03*
X84134960Y-123926600D03*
X87642620Y-120970040D03*
X89542620Y-120970040D03*
X108742400Y-123088400D03*
X110642400Y-123088400D03*
X114322820Y-119425720D03*
X116222820Y-119425720D03*
X162143360Y-116984780D03*
X164043360Y-116984780D03*
X161622660Y-114289840D03*
X163522660Y-114289840D03*
X161858880Y-120652540D03*
X163758880Y-120652540D03*
X150972520Y-106301540D03*
X152872520Y-106301540D03*
X151160400Y-109461300D03*
X153060400Y-109461300D03*
D14*
X113760000Y-105500000D03*
D15*
X116300000Y-105500000D03*
X118840000Y-105500000D03*
X121380000Y-105500000D03*
X123920000Y-105500000D03*
X126460000Y-105500000D03*
X129000000Y-105500000D03*
X131540000Y-105500000D03*
X134080000Y-105500000D03*
X136620000Y-105500000D03*
D16*
X75000000Y-120000000D03*
X75000000Y-109840000D03*
X180000000Y-120000000D03*
X180000000Y-109840000D03*
D17*
X137766040Y-117525760D03*
X137766040Y-119425760D03*
X139766040Y-118475760D03*
X130867400Y-114757160D03*
X130867400Y-116657160D03*
X132867400Y-115707160D03*
D18*
X84378800Y-115455700D03*
X82178800Y-115455700D03*
X133957060Y-124503180D03*
X131757060Y-124503180D03*
D19*
X128450340Y-124706560D03*
X128450340Y-122506560D03*
D18*
X87921740Y-112100360D03*
X90121740Y-112100360D03*
X137875920Y-112257840D03*
X140075920Y-112257840D03*
X82270160Y-112341660D03*
X84470160Y-112341660D03*
X143471540Y-116298980D03*
X145671540Y-116298980D03*
X87703300Y-118013480D03*
X89903300Y-118013480D03*
X143174540Y-112567720D03*
X145374540Y-112567720D03*
X82176620Y-121071640D03*
X84376620Y-121071640D03*
X99990000Y-132080000D03*
X97790000Y-132080000D03*
X161221060Y-111292640D03*
X163421060Y-111292640D03*
X114459660Y-122981720D03*
X116659660Y-122981720D03*
X105092500Y-106550460D03*
X102892500Y-106550460D03*
X143471540Y-120340120D03*
X145671540Y-120340120D03*
X113867840Y-115531900D03*
X116067840Y-115531900D03*
X108546540Y-119326660D03*
X110746540Y-119326660D03*
D19*
X105857040Y-119339360D03*
X105857040Y-117139360D03*
D18*
X108604960Y-115694460D03*
X110804960Y-115694460D03*
X96855100Y-106172000D03*
X99055100Y-106172000D03*
X124460000Y-119380000D03*
X122260000Y-119380000D03*
X131579260Y-121008140D03*
X133779260Y-121008140D03*
D20*
X88900000Y-130810000D03*
X104272080Y-122062240D03*
X92148660Y-122806460D03*
X118788180Y-123134120D03*
X91457780Y-119250460D03*
X78740000Y-111760000D03*
X78740000Y-118110000D03*
X104140000Y-119380000D03*
X141183360Y-115849400D03*
X130957320Y-118541800D03*
X116022120Y-117342920D03*
X108102400Y-110865920D03*
X159786320Y-124073920D03*
X159633920Y-119461280D03*
X80330040Y-117645180D03*
X80330040Y-113388140D03*
X106512360Y-125958600D03*
X136570720Y-108544360D03*
X136342120Y-113695480D03*
X136291320Y-120954800D03*
X134650480Y-122621040D03*
X128270000Y-102870000D03*
X91440000Y-118110000D03*
X123190000Y-113030000D03*
X124460000Y-116840000D03*
X147944840Y-116001800D03*
X130652520Y-108701840D03*
X141721840Y-114005360D03*
X147944840Y-114233960D03*
X152013920Y-125323600D03*
X147782280Y-119390160D03*
X165100000Y-113030000D03*
X160020000Y-113030000D03*
X97099120Y-108290360D03*
X117718840Y-117094000D03*
X112288320Y-117891560D03*
X108549440Y-113507520D03*
X147177760Y-117307360D03*
X141645640Y-117617240D03*
X148330920Y-112003840D03*
X145181320Y-109697520D03*
X148254720Y-118003320D03*
X143413480Y-118384320D03*
X105760520Y-121031000D03*
X106060240Y-123372880D03*
X121920000Y-120650000D03*
X112958719Y-119903837D03*
X112958719Y-119903837D03*
X104190800Y-112001300D03*
X106583480Y-114310160D03*
D21*
X84378800Y-115455700D02*
X88049060Y-115455700D01*
X88049060Y-115455700D02*
X88231940Y-115272820D01*
X94213680Y-114556540D02*
X90223220Y-114556540D01*
X90223220Y-114556540D02*
X90131940Y-114647820D01*
X90131940Y-114647820D02*
X90131940Y-115272820D01*
X90121740Y-112100360D02*
X90121740Y-115262620D01*
X90121740Y-115262620D02*
X90131940Y-115272820D01*
X83820000Y-128270000D02*
X86360000Y-128270000D01*
X86360000Y-128270000D02*
X88900000Y-130810000D01*
X91457780Y-119250460D02*
X91140280Y-119250460D01*
X91140280Y-119250460D02*
X89903300Y-118013480D01*
X104272080Y-122062240D02*
X101947980Y-122062240D01*
X101947980Y-122062240D02*
X101833680Y-122176540D01*
X94213680Y-122176540D02*
X92778580Y-122176540D01*
X92778580Y-122176540D02*
X92148660Y-122806460D01*
X118788180Y-123134120D02*
X120241060Y-124587000D01*
X120241060Y-124587000D02*
X121163080Y-124587000D01*
X94213680Y-122176540D02*
X93913680Y-122176540D01*
X93913680Y-122176540D02*
X91457780Y-119720640D01*
X91457780Y-119720640D02*
X91457780Y-119250460D01*
X93385640Y-122176540D02*
X94213680Y-122176540D01*
X94213680Y-117096540D02*
X90120240Y-117096540D01*
X90120240Y-117096540D02*
X89903300Y-117313480D01*
X89903300Y-117313480D02*
X89903300Y-118013480D01*
X128450340Y-124706560D02*
X131553680Y-124706560D01*
X131553680Y-124706560D02*
X131757060Y-124503180D01*
X124924820Y-124559060D02*
X128302840Y-124559060D01*
X128302840Y-124559060D02*
X128450340Y-124706560D01*
X121163080Y-124587000D02*
X124896880Y-124587000D01*
X124896880Y-124587000D02*
X124924820Y-124559060D01*
X114459660Y-124386700D02*
X114659960Y-124587000D01*
X114659960Y-124587000D02*
X121163080Y-124587000D01*
X114459660Y-124386700D02*
X114459660Y-122981720D01*
X78740000Y-111760000D02*
X78740000Y-109631962D01*
X78740000Y-109631962D02*
X78186039Y-109078001D01*
X81920000Y-128270000D02*
X81920000Y-127645000D01*
X81920000Y-127645000D02*
X78740000Y-124465000D01*
X78740000Y-124465000D02*
X78740000Y-118110000D01*
X101833680Y-119636540D02*
X103883460Y-119636540D01*
X103883460Y-119636540D02*
X104140000Y-119380000D01*
X153060400Y-109461300D02*
X162289720Y-109461300D01*
X162289720Y-109461300D02*
X163421060Y-110592640D01*
X163421060Y-110592640D02*
X163421060Y-111292640D01*
X102892500Y-106550460D02*
X103042500Y-106550460D01*
X103042500Y-106550460D02*
X104251540Y-105341420D01*
X104251540Y-105341420D02*
X105518462Y-105341420D01*
X105518462Y-105341420D02*
X108102400Y-107925358D01*
X108102400Y-107925358D02*
X108102400Y-110441656D01*
X108102400Y-110441656D02*
X108102400Y-110865920D01*
X78186039Y-109078001D02*
X83710539Y-103553501D01*
X83710539Y-103553501D02*
X96286601Y-103553501D01*
X75761999Y-109078001D02*
X78186039Y-109078001D01*
X141183360Y-115849400D02*
X141508781Y-115523979D01*
X141508781Y-115523979D02*
X144746539Y-115523979D01*
X144746539Y-115523979D02*
X145521540Y-116298980D01*
X145521540Y-116298980D02*
X145671540Y-116298980D01*
X130867400Y-116657160D02*
X130867400Y-118451880D01*
X130867400Y-118451880D02*
X130957320Y-118541800D01*
X163522660Y-114289840D02*
X163522660Y-114914840D01*
X163522660Y-114914840D02*
X164968361Y-116360541D01*
X163758880Y-120027540D02*
X163758880Y-120652540D01*
X164968361Y-116360541D02*
X164968361Y-118818059D01*
X164968361Y-118818059D02*
X163758880Y-120027540D01*
X163421060Y-111292640D02*
X163421060Y-114188240D01*
X163421060Y-114188240D02*
X163522660Y-114289840D01*
X145374540Y-112567720D02*
X145374540Y-111867720D01*
X145374540Y-111867720D02*
X147080959Y-110161301D01*
X147080959Y-110161301D02*
X152135399Y-110161301D01*
X152835400Y-109461300D02*
X153060400Y-109461300D01*
X152135399Y-110161301D02*
X152835400Y-109461300D01*
X145671540Y-116298980D02*
X145671540Y-112864720D01*
X145671540Y-112864720D02*
X145374540Y-112567720D01*
X145671540Y-120340120D02*
X145671540Y-119640120D01*
X145671540Y-119640120D02*
X145671540Y-116298980D01*
X145671540Y-120340120D02*
X150304500Y-120340120D01*
X150304500Y-120340120D02*
X150632160Y-120667780D01*
X145829020Y-123916440D02*
X145829020Y-120497600D01*
X145829020Y-120497600D02*
X145671540Y-120340120D01*
X152872520Y-106301540D02*
X152872520Y-109273420D01*
X152872520Y-109273420D02*
X153060400Y-109461300D01*
X128450340Y-122506560D02*
X128450340Y-119024220D01*
X128450340Y-119024220D02*
X130817400Y-116657160D01*
X130817400Y-116657160D02*
X130867400Y-116657160D01*
X124924820Y-122659060D02*
X128297840Y-122659060D01*
X128297840Y-122659060D02*
X128450340Y-122506560D01*
X121163080Y-122687000D02*
X124896880Y-122687000D01*
X124896880Y-122687000D02*
X124924820Y-122659060D01*
X116222820Y-119425720D02*
X118126800Y-119425720D01*
X121163080Y-122462000D02*
X121163080Y-122687000D01*
X118126800Y-119425720D02*
X121163080Y-122462000D01*
X116022120Y-117342920D02*
X116022120Y-119225020D01*
X116022120Y-119225020D02*
X116222820Y-119425720D01*
X99055100Y-106172000D02*
X102514040Y-106172000D01*
X102514040Y-106172000D02*
X102892500Y-106550460D01*
X75000000Y-109840000D02*
X75761999Y-109078001D01*
X96286601Y-103553501D02*
X98905100Y-106172000D01*
X98905100Y-106172000D02*
X99055100Y-106172000D01*
X143929020Y-123916440D02*
X144154020Y-123916440D01*
X144154020Y-123916440D02*
X144854021Y-124616441D01*
X144854021Y-124616441D02*
X147153499Y-124616441D01*
X147153499Y-124616441D02*
X149832160Y-121937780D01*
X149832160Y-121937780D02*
X150632160Y-121937780D01*
X139766040Y-118475760D02*
X139766040Y-119978460D01*
X139766040Y-119978460D02*
X143704020Y-123916440D01*
X143704020Y-123916440D02*
X143929020Y-123916440D01*
X156982160Y-121937780D02*
X155712160Y-121937780D01*
X156982160Y-121937780D02*
X161955560Y-121937780D01*
X161955560Y-121937780D02*
X162011280Y-121993500D01*
X162011280Y-121993500D02*
X162011280Y-122618500D01*
X156982160Y-119397780D02*
X155712160Y-119397780D01*
X159786320Y-124073920D02*
X163080860Y-124073920D01*
X163080860Y-124073920D02*
X163911280Y-123243500D01*
X163911280Y-123243500D02*
X163911280Y-122618500D01*
X156982160Y-119397780D02*
X159570420Y-119397780D01*
X159570420Y-119397780D02*
X159633920Y-119461280D01*
X80330040Y-117645180D02*
X82123360Y-117645180D01*
X82123360Y-117645180D02*
X82234960Y-117756780D01*
X82234960Y-117756780D02*
X82234960Y-118381780D01*
X81073680Y-113388140D02*
X80330040Y-113388140D01*
X82270160Y-112341660D02*
X82120160Y-112341660D01*
X82120160Y-112341660D02*
X81073680Y-113388140D01*
X82234960Y-123926600D02*
X81384960Y-123926600D01*
X81384960Y-123926600D02*
X81251619Y-123793259D01*
X81251619Y-123793259D02*
X81251619Y-119990121D01*
X81251619Y-119990121D02*
X82234960Y-119006780D01*
X82234960Y-119006780D02*
X82234960Y-118381780D01*
X82234960Y-117756780D02*
X82678260Y-117313480D01*
X82678260Y-117313480D02*
X86853300Y-117313480D01*
X86853300Y-117313480D02*
X87553300Y-118013480D01*
X87553300Y-118013480D02*
X87703300Y-118013480D01*
X91437460Y-124716540D02*
X91437460Y-121427240D01*
X91437460Y-121427240D02*
X90402621Y-120392401D01*
X90402621Y-120392401D02*
X90402621Y-120270039D01*
X94213680Y-124716540D02*
X91437460Y-124716540D01*
X90402621Y-120270039D02*
X88567621Y-120270039D01*
X87642620Y-120970040D02*
X87867620Y-120970040D01*
X87867620Y-120970040D02*
X88567621Y-120270039D01*
X84376620Y-121071640D02*
X87541020Y-121071640D01*
X87541020Y-121071640D02*
X87642620Y-120970040D01*
X84134960Y-118381780D02*
X84134960Y-120829980D01*
X84134960Y-120829980D02*
X84376620Y-121071640D01*
X94213680Y-127256540D02*
X94213680Y-128653680D01*
X94213680Y-128653680D02*
X97640000Y-132080000D01*
X97640000Y-132080000D02*
X97790000Y-132080000D01*
X89832180Y-123784360D02*
X89832180Y-124484360D01*
X89832180Y-124484360D02*
X92604360Y-127256540D01*
X92604360Y-127256540D02*
X93413680Y-127256540D01*
X93413680Y-127256540D02*
X94213680Y-127256540D01*
X84134960Y-123926600D02*
X84134960Y-122879980D01*
X84134960Y-122879980D02*
X82326620Y-121071640D01*
X82326620Y-121071640D02*
X82176620Y-121071640D01*
X84134960Y-123926600D02*
X84984960Y-123926600D01*
X84984960Y-123926600D02*
X85740240Y-124681880D01*
X85740240Y-124681880D02*
X88784660Y-124681880D01*
X88784660Y-124681880D02*
X89682180Y-123784360D01*
X89682180Y-123784360D02*
X89832180Y-123784360D01*
X89542620Y-120970040D02*
X89542620Y-123494800D01*
X89542620Y-123494800D02*
X89832180Y-123784360D01*
X99990000Y-132080000D02*
X100140000Y-132080000D01*
X100140000Y-132080000D02*
X102342180Y-129877820D01*
X102342180Y-129877820D02*
X104510840Y-129877820D01*
X104510840Y-129877820D02*
X106512360Y-127876300D01*
X106512360Y-127876300D02*
X106512360Y-125958600D01*
X106512360Y-125958600D02*
X108742400Y-123728560D01*
X108742400Y-123728560D02*
X108742400Y-123088400D01*
X101833680Y-124716540D02*
X103421300Y-124716540D01*
X103421300Y-124716540D02*
X106022260Y-122115580D01*
X106022260Y-122115580D02*
X110294580Y-122115580D01*
X110746540Y-119326660D02*
X110746540Y-121663620D01*
X110746540Y-121663620D02*
X110294580Y-122115580D01*
X110294580Y-122115580D02*
X110642400Y-122463400D01*
X110642400Y-122463400D02*
X110642400Y-123088400D01*
X106497120Y-112074960D02*
X105092500Y-110670340D01*
X105092500Y-110670340D02*
X105092500Y-106550460D01*
X106497120Y-112074960D02*
X104015540Y-114556540D01*
X104015540Y-114556540D02*
X101833680Y-114556540D01*
X105092500Y-106641900D02*
X105092500Y-106550460D01*
X106497120Y-112074960D02*
X111110900Y-112074960D01*
X111110900Y-112074960D02*
X113867840Y-114831900D01*
X113867840Y-114831900D02*
X113867840Y-115531900D01*
X114322820Y-119425720D02*
X114322820Y-120794880D01*
X116509660Y-122981720D02*
X116659660Y-122981720D01*
X114322820Y-120794880D02*
X116509660Y-122981720D01*
X113867840Y-115531900D02*
X113867840Y-118970740D01*
X113867840Y-118970740D02*
X114322820Y-119425720D01*
X156982160Y-118127780D02*
X155712160Y-118127780D01*
X156982160Y-118127780D02*
X161625360Y-118127780D01*
X161625360Y-118127780D02*
X162143360Y-117609780D01*
X162143360Y-117609780D02*
X162143360Y-116984780D01*
X156982160Y-116857780D02*
X155712160Y-116857780D01*
X156982160Y-116857780D02*
X157282160Y-116857780D01*
X157282160Y-116857780D02*
X157855161Y-116284779D01*
X157855161Y-116284779D02*
X163118359Y-116284779D01*
X163118359Y-116284779D02*
X163818360Y-116984780D01*
X163818360Y-116984780D02*
X164043360Y-116984780D01*
X156982160Y-115587780D02*
X155712160Y-115587780D01*
X161622660Y-114289840D02*
X158280100Y-114289840D01*
X158280100Y-114289840D02*
X157782160Y-114787780D01*
X157782160Y-114787780D02*
X157782160Y-115087780D01*
X157782160Y-115087780D02*
X157282160Y-115587780D01*
X157282160Y-115587780D02*
X156982160Y-115587780D01*
X156982160Y-120667780D02*
X155712160Y-120667780D01*
X156982160Y-120667780D02*
X161843640Y-120667780D01*
X161843640Y-120667780D02*
X161858880Y-120652540D01*
X128270000Y-102870000D02*
X133990000Y-102870000D01*
X133990000Y-102870000D02*
X136620000Y-105500000D01*
X136570720Y-108544360D02*
X136570720Y-105549280D01*
X136570720Y-105549280D02*
X136620000Y-105500000D01*
X137766040Y-119425760D02*
X137716040Y-119425760D01*
X137716040Y-119425760D02*
X136342120Y-118051840D01*
X136342120Y-118051840D02*
X136342120Y-113695480D01*
X150972520Y-106301540D02*
X150972520Y-109273420D01*
X150972520Y-109273420D02*
X151160400Y-109461300D01*
X136620000Y-105500000D02*
X150795980Y-105500000D01*
X150795980Y-105500000D02*
X150972520Y-105676540D01*
X150972520Y-105676540D02*
X150972520Y-106301540D01*
X136291320Y-120954800D02*
X136291320Y-120900480D01*
X136291320Y-120900480D02*
X137766040Y-119425760D01*
X133957060Y-123235940D02*
X134035580Y-123235940D01*
X134035580Y-123235940D02*
X134650480Y-122621040D01*
X131579260Y-121008140D02*
X131729260Y-121008140D01*
X131729260Y-121008140D02*
X133957060Y-123235940D01*
X133957060Y-123235940D02*
X133957060Y-123803180D01*
X133957060Y-123803180D02*
X133957060Y-124503180D01*
X94213680Y-119636540D02*
X92966540Y-119636540D01*
X92966540Y-119636540D02*
X91440000Y-118110000D01*
X116067840Y-115531900D02*
X116067840Y-107807840D01*
X116067840Y-107807840D02*
X113760000Y-105500000D01*
X123190000Y-113030000D02*
X122499040Y-112339040D01*
X122499040Y-112339040D02*
X122499040Y-111699040D01*
X124460000Y-119380000D02*
X124460000Y-116840000D01*
X116300000Y-105500000D02*
X122499040Y-111699040D01*
X122499040Y-111699040D02*
X129509280Y-111699040D01*
X129509280Y-111699040D02*
X132867400Y-115057160D01*
X132867400Y-115057160D02*
X132867400Y-115707160D01*
X132867400Y-115707160D02*
X132867400Y-120246280D01*
X132867400Y-120246280D02*
X133629260Y-121008140D01*
X133629260Y-121008140D02*
X133779260Y-121008140D01*
X118840000Y-105500000D02*
X124038280Y-110698280D01*
X124038280Y-110698280D02*
X135466360Y-110698280D01*
X135466360Y-110698280D02*
X137025920Y-112257840D01*
X137025920Y-112257840D02*
X137875920Y-112257840D01*
X147944840Y-116001800D02*
X148358860Y-115587780D01*
X148358860Y-115587780D02*
X150632160Y-115587780D01*
X129000000Y-105500000D02*
X129000000Y-107049320D01*
X129000000Y-107049320D02*
X130652520Y-108701840D01*
X141721840Y-110774480D02*
X136814480Y-110774480D01*
X136814480Y-110774480D02*
X131540000Y-105500000D01*
X141721840Y-114005360D02*
X141721840Y-110774480D01*
X150632160Y-114317780D02*
X148028660Y-114317780D01*
X148028660Y-114317780D02*
X147944840Y-114233960D01*
X75000000Y-120000000D02*
X75000000Y-116065540D01*
X75000000Y-116065540D02*
X75609840Y-115455700D01*
X75609840Y-115455700D02*
X82178800Y-115455700D01*
X152013920Y-125323600D02*
X174676400Y-125323600D01*
X174676400Y-125323600D02*
X180000000Y-120000000D01*
X150632160Y-119397780D02*
X147789900Y-119397780D01*
X147789900Y-119397780D02*
X147782280Y-119390160D01*
X165100000Y-113030000D02*
X176810000Y-113030000D01*
X176810000Y-113030000D02*
X180000000Y-109840000D01*
X155712160Y-114317780D02*
X156512160Y-114317780D01*
X156512160Y-114317780D02*
X157799940Y-113030000D01*
X157799940Y-113030000D02*
X160020000Y-113030000D01*
X137766040Y-117525760D02*
X137766040Y-114417720D01*
X139925920Y-112257840D02*
X140075920Y-112257840D01*
X137766040Y-114417720D02*
X139925920Y-112257840D01*
X97099120Y-108290360D02*
X97099120Y-106416020D01*
X97099120Y-106416020D02*
X96855100Y-106172000D01*
X117718840Y-117094000D02*
X120055680Y-114757160D01*
X120055680Y-114757160D02*
X130867400Y-114757160D01*
X110804960Y-115694460D02*
X110804960Y-116408200D01*
X110804960Y-116408200D02*
X112288320Y-117891560D01*
X108549440Y-113507520D02*
X110736380Y-115694460D01*
X110736380Y-115694460D02*
X110804960Y-115694460D01*
X96855100Y-106172000D02*
X97005100Y-106172000D01*
X94213680Y-112016540D02*
X93413680Y-112016540D01*
X93413680Y-112016540D02*
X92722499Y-111325359D01*
X92722499Y-111325359D02*
X88846741Y-111325359D01*
X87921740Y-112100360D02*
X88071740Y-112100360D01*
X88071740Y-112100360D02*
X88846741Y-111325359D01*
X84470160Y-112341660D02*
X87680440Y-112341660D01*
X87680440Y-112341660D02*
X87921740Y-112100360D01*
X147177760Y-117307360D02*
X150182580Y-117307360D01*
X150182580Y-117307360D02*
X150632160Y-116857780D01*
X143471540Y-116298980D02*
X142963900Y-116298980D01*
X142963900Y-116298980D02*
X141645640Y-117617240D01*
X148330920Y-112003840D02*
X150088220Y-112003840D01*
X150088220Y-112003840D02*
X150632160Y-112547780D01*
X150632160Y-112547780D02*
X150632160Y-113047780D01*
X143174540Y-112567720D02*
X143174540Y-111704300D01*
X143174540Y-111704300D02*
X145181320Y-109697520D01*
X156982160Y-113047780D02*
X155712160Y-113047780D01*
X161221060Y-111292640D02*
X158237300Y-111292640D01*
X158237300Y-111292640D02*
X156982160Y-112547780D01*
X156982160Y-112547780D02*
X156982160Y-113047780D01*
X148254720Y-118003320D02*
X150507700Y-118003320D01*
X150507700Y-118003320D02*
X150632160Y-118127780D01*
X143471540Y-120340120D02*
X143471540Y-118442380D01*
X143471540Y-118442380D02*
X143413480Y-118384320D01*
X106060240Y-123372880D02*
X102176580Y-127256540D01*
X102176580Y-127256540D02*
X101833680Y-127256540D01*
X105760520Y-121031000D02*
X105760520Y-119435880D01*
X105760520Y-119435880D02*
X105857040Y-119339360D01*
X106047540Y-123385580D02*
X106060240Y-123372880D01*
X108546540Y-119326660D02*
X105869740Y-119326660D01*
X105869740Y-119326660D02*
X105857040Y-119339360D01*
X121920000Y-120650000D02*
X121920000Y-119720000D01*
X121920000Y-119720000D02*
X122260000Y-119380000D01*
X104840820Y-118305580D02*
X103631780Y-117096540D01*
X103631780Y-117096540D02*
X101833680Y-117096540D01*
X105857040Y-117139360D02*
X110194242Y-117139360D01*
X110194242Y-117139360D02*
X112958719Y-119903837D01*
X104840820Y-118305580D02*
X105857040Y-117289360D01*
X105857040Y-117289360D02*
X105857040Y-117139360D01*
X104190800Y-112001300D02*
X101848920Y-112001300D01*
X101848920Y-112001300D02*
X101833680Y-112016540D01*
X108604960Y-115694460D02*
X108454960Y-115694460D01*
X108454960Y-115694460D02*
X107070660Y-114310160D01*
X107070660Y-114310160D02*
X106583480Y-114310160D01*
X108533840Y-115765580D02*
X108604960Y-115694460D01*
M02*
